<svg xmlns="http://www.w3.org/2000/svg" width="376" height="376" fill="none"><path fill="#FDFDFD" d="m217.224 318.988 1.071 2.209.036-.017c-1.011 2.029-6.197 12.198-12.423 20.083-2.968 3.76-6.169 6.995-9.266 8.582l-.65.465s-.044.028-.136.072c0 0-8.207 3.64-15.72 0-.092-.044-.137-.072-.137-.072l-.649-.465c-3.097-1.587-6.298-4.826-9.266-8.582-6.222-7.885-11.413-18.054-12.423-20.083l.036.017 1.071-2.209.164-.088a136.034 136.034 0 0 0 3.626 6.409c3.013 5.019 5.684 8.755 8.216 12.855.012.024.032.049.044.073h.004c3.887 6.261 8.632 9.568 8.632 9.568s2.379 2.305 6.422 2.685h.02a11.7 11.7 0 0 0 2.098.013c.738.06 1.44.048 2.098-.013h.02c4.043-.38 6.422-2.685 6.422-2.685s4.745-3.307 8.632-9.568h.004c.012-.024.032-.049.044-.073 2.531-4.1 5.203-7.836 8.215-12.855a137.138 137.138 0 0 0 3.627-6.409l.168.088Z"/><path fill="#DC01FF" d="M354.498 204.658a7.348 7.348 0 0 0 3.069 1.435 167.513 167.513 0 0 1-1.741 15.036l-.831-.128c-1.323 6.064-3.887 12.991-6.871 19.773a165.467 165.467 0 0 0 6.374-36.116Z"/><path fill="#DC01FF" d="m354.996 221.001.83.128a167.994 167.994 0 0 1-11.192 38.878c-8.56 20.231-20.818 38.394-36.43 53.995a170.504 170.504 0 0 1-26.045 21.357c-.004.004-.008.004-.012.004 0 0-.004 0-.004.004-3.538 1.543-6.579 2.665-8.961 3.006.028-.028.357-.325 3.935-3.6 33.839-21.445 59.459-54.723 70.995-93.966.004-.012.004-.016.008-.02.004-.008.004-.012.004-.012 2.985-6.783 5.552-13.709 6.872-19.774Z"/><path fill="#FF8D02" d="M348.116 240.807c-11.536 39.243-37.156 72.521-70.995 93.966 2.479-2.264 6.526-5.968 13.12-12.005 4.505-3.351 8.938-7.356 12.576-11.512 12.98-11.881 23.281-26.877 30.758-39.981 9.186-16.086 14.12-29.318 14.525-30.428.004-.016.012-.028.016-.04Z"/><path fill="#EAEAEC" d="M348.096 240.851c-.405 1.11-5.339 14.342-14.525 30.428a9.41 9.41 0 0 0 1.268-4.546v-.004c3.534-6.141 8.849-15.849 13.257-25.878Z"/><path fill="#EAEAEC" d="M354.498 204.658a165.476 165.476 0 0 1-6.374 36.117s0 .004-.004.012c-.004.004-.004.012-.008.02-.004.012-.012.024-.016.04-4.413 10.029-9.727 19.738-13.257 25.879a9.522 9.522 0 0 0-.321-2.65 9.417 9.417 0 0 0-4.116-5.576c.486-1.082.963-2.168 1.428-3.267 8.135-19.22 12.259-39.648 12.259-60.712 0-21.065-4.128-41.488-12.259-60.713a156.21 156.21 0 0 0-4.256-9.207 9.227 9.227 0 0 0 2.022-.874 9.432 9.432 0 0 0 4.424-5.76 9.373 9.373 0 0 0 .105-4.494c13.008 23.514 20.497 50.475 20.71 79.136"/><path fill="#FDFDFD" d="M330.402 258.504a9.372 9.372 0 0 1 4.115 5.576c.237.878.345 1.768.321 2.65v.004c-2.334 4.056-3.887 6.553-3.887 6.553l-1.043 1.564s-.004 0-.004.004a9.5 9.5 0 0 1-4.564 1.17 9.499 9.499 0 0 1-3.739-.769 159.64 159.64 0 0 0 1.801-3.055.965.965 0 0 0 .1.032c.093.032.181.06.277.084a.095.095 0 0 0 .048.012c.117.028.237.057.353.077.008.008.016.008.028.008.097.02.193.036.289.048.121.016.237.032.353.04a7.914 7.914 0 0 0 .482.02 5.97 5.97 0 0 0 5.796-4.462 5.988 5.988 0 0 0 .084-2.673v-.004a2.282 2.282 0 0 0-.072-.321c-.008-.032-.012-.068-.024-.1-.028-.108-.064-.213-.096-.321a6.488 6.488 0 0 0-.277-.689c-.004-.012-.012-.02-.012-.032a3.292 3.292 0 0 0-.181-.337 5.23 5.23 0 0 0-.192-.321l-.008-.008c-.069-.108-.149-.216-.225-.32-.064-.085-.124-.165-.197-.245-.048-.06-.1-.124-.156-.18-.032-.04-.068-.077-.104-.117a2.141 2.141 0 0 0-.193-.188c-.012-.012-.02-.024-.032-.032-.04-.04-.084-.076-.124-.116l-.004-.004c-.04-.04-.084-.072-.129-.109a3.648 3.648 0 0 0-.276-.216c-.004-.008-.004-.008-.008-.004v-.004a134.333 134.333 0 0 0 1.5-3.215Z"/><path fill="#FDFDFD" d="M330.951 273.283s1.552-2.497 3.887-6.554a9.41 9.41 0 0 1-1.268 4.546 9.502 9.502 0 0 1-3.658 3.571l1.039-1.563Z"/><path fill="#F05601" d="M333.571 271.275c-7.473 13.104-17.778 28.099-30.758 39.981 11.256-12.856 23.418-30.906 23.418-30.906l3.674-5.499c0-.004.004-.004.004-.004a9.439 9.439 0 0 0 3.662-3.572Z"/><path fill="#22245C" d="M329.936 262.688a1.67 1.67 0 0 0-.155-.18l.155.18ZM329.671 262.395Z"/><path fill="#FDFDFD" d="M330.093 258.315c.104.061.209.125.309.185a149.545 149.545 0 0 1-1.496 3.219c-.008-.008-.012-.012-.016-.012-.04-.036-.085-.065-.129-.097-.04-.032-.084-.06-.128-.088a3.508 3.508 0 0 0-.289-.18c-.124-.068-.245-.136-.369-.193a2.448 2.448 0 0 0-.281-.128 4.44 4.44 0 0 0-.441-.168c-.06-.02-.12-.04-.18-.056a.116.116 0 0 0-.061-.016 1.766 1.766 0 0 0-.208-.056 1.36 1.36 0 0 0-.229-.053v-3.555a9.694 9.694 0 0 1 3.518 1.198Z"/><path fill="#22245C" d="M327.068 260.805c.064.012.124.036.18.056-.06-.02-.12-.04-.18-.056ZM326.8 260.733Z"/><path fill="#202541" d="M331.83 133.812a156.21 156.21 0 0 0-4.256-9.207c-.325.096-.662.18-.999.24V257.121a9.534 9.534 0 0 1 3.522 1.194c.104.061.209.125.309.185.485-1.082.963-2.169 1.428-3.267 8.135-19.221 12.258-39.648 12.258-60.712-.004-21.057-4.131-41.484-12.262-60.709Z"/><path fill="#22245C" d="M326.799 260.733c.069.016.137.036.209.056.02 0 .04.008.06.016.06.016.125.036.181.056.152.048.297.104.441.168.096.04.188.081.281.129.124.056.244.124.369.192a4.614 4.614 0 0 1 .417.269c.044.032.088.06.128.096.008 0 .012.004.016.012v.004c-.75 1.575-1.524 3.13-2.33 4.678v-5.728c.08.008.156.028.228.052ZM326.575 266.405v.384h-.2c.068-.132.136-.256.2-.384Z"/><path fill="#FEFEFE" d="M326.574 256.736v.384l-.32-.036.32-.348Z"/><path fill="#F1CF25" d="M326.576 255.425a85.281 85.281 0 0 1-2.455-2.152V126.056l.682-1.05h.056c.574 0 1.155-.053 1.717-.157v130.576Z"/><path fill="#FEFEFE" d="M324.12 253.273a81.322 81.322 0 0 0 2.455 2.152v1.315l-.321.349a9.815 9.815 0 0 0-2.138.04v-3.856h.004Z"/><path fill="#1E205D" d="M326.266 121.329Z"/><path fill="#22245C" d="M326.562 260.676c-.076-.012-.152-.028-.228-.039.076.008.156.019.228.039ZM325.966 267.563l.537 1.102-1.54.746c.341-.609.674-1.227 1.003-1.848ZM326.374 266.79c-.132.26-.268.517-.405.773l-.377-.773h.782Z"/><path fill="#22245C" d="M324.963 260.564c.124-.012.252-.012.381-.012.112 0 .224.004.333.012l.184.012.153.012c.068.008.144.016.212.032.036 0 .068.004.104.016a3.54 3.54 0 0 1 .241.045v5.724a8.808 8.808 0 0 1-.2.384h-.783l-.16-.328-.682.328h-.63v-6.108c.084-.017.169-.037.257-.045.028-.012.056-.012.084-.012.064-.012.125-.02.189-.028a2.17 2.17 0 0 1 .317-.032Z"/><path fill="#22245C" d="m325.432 266.461.16.328h-.842l.682-.328Z"/><path fill="#F05601" d="M325.344 276.021a9.515 9.515 0 0 0 4.565-1.17l-3.674 5.499s-12.166 18.05-23.418 30.906l-12.575 11.512c-9.383 6.983-19.074 11.135-22.548 7.953.293-.722.654-1.648 1.055-2.662h.004c10.726-6.482 20.638-14.254 29.624-23.237.99-.99 1.969-1.996 2.936-3.014.012-.016.032-.036.048-.053.329-.34.654-.681.963-1.022l.092-.096a155.192 155.192 0 0 0 19.194-25.386 9.447 9.447 0 0 0 3.734.77Z"/><path fill="#1E205D" d="M330.033 112.527a5.978 5.978 0 0 1-2.19 8.174 5.057 5.057 0 0 1-.662.324c-.096.04-.189.08-.285.113-.08.032-.16.06-.245.084-.024.012-.048.016-.072.024h-.004v.004c-.004 0-.004 0-.008-.004-.1.032-.2.06-.301.084a2.485 2.485 0 0 1-.345.072 3.006 3.006 0 0 1-.264.04 1.411 1.411 0 0 1-.181.02.704.704 0 0 1-.132.012 1.83 1.83 0 0 1-.209.012 5.83 5.83 0 0 1-1.015-.036c-.092-.012-.184-.024-.276-.04-.008 0-.012 0-.025-.004a4.713 4.713 0 0 1-.208-.04c-.056-.012-.116-.02-.177-.04-.032-.008-.06-.012-.088-.02-.028-.008-.056-.012-.088-.02a6.15 6.15 0 0 1-.895-.325 5.992 5.992 0 0 1-.228-.112 4.33 4.33 0 0 1-.534-.305 2.008 2.008 0 0 1-.224-.152c-.012-.008-.028-.016-.041-.028a.586.586 0 0 1-.096-.068l-.092-.072a.634.634 0 0 1-.1-.081 4.16 4.16 0 0 1-.153-.124 5.193 5.193 0 0 1-.553-.557 1.78 1.78 0 0 1-.161-.192c-.048-.061-.096-.121-.14-.181a5.588 5.588 0 0 1-.381-.577c-.052-.096-.105-.188-.153-.285a1.511 1.511 0 0 1-.068-.14 4.916 4.916 0 0 1-.228-.545c-.025-.06-.045-.124-.065-.184a1.995 1.995 0 0 1-.076-.261c-.012-.048-.028-.096-.04-.148a1.21 1.21 0 0 1-.04-.173c-.012-.044-.02-.096-.028-.14-.024-.096-.04-.2-.052-.301a5.732 5.732 0 0 1-.028-.26c-.012-.092-.016-.181-.02-.269-.008-.096-.008-.192-.008-.292 0-.125.004-.253.012-.377.004-.116.012-.229.032-.345.008-.064.012-.124.028-.188.008-.072.02-.149.036-.225.016-.096.04-.196.068-.292 0-.004 0-.008.004-.012.012-.061.032-.125.048-.181.016-.068.04-.136.064-.208.04-.141.097-.281.153-.417.04-.096.08-.197.124-.293.068-.148.145-.292.229-.433.044-.084.096-.168.152-.248.088-.144.185-.285.293-.417.056-.072.116-.148.181-.221.036-.044.072-.092.116-.132.06-.068.12-.132.18-.196.093-.092.181-.181.277-.265.012-.012.024-.02.04-.036.072-.068.153-.128.233-.188a4.852 4.852 0 0 1 .734-.501 5.982 5.982 0 0 1 5.945-.024 5.907 5.907 0 0 1 2.23 2.212Z"/><path fill="#FEFCFD" d="m321.906 121.863-1.38 2.096a9.502 9.502 0 0 1-3.899-3.695 9.098 9.098 0 0 1-.573-1.175 9.147 9.147 0 0 1-.626-2.453 9.56 9.56 0 0 1 .409-4.085 9.69 9.69 0 0 1 1.059-2.212 9.048 9.048 0 0 1 1.432-1.712 9.472 9.472 0 0 1 8.359-2.413 9.568 9.568 0 0 1 4.605 2.341 9.267 9.267 0 0 1 1.785 2.225c0 .004.004.004.004.008a9.32 9.32 0 0 1 1.047 2.689 9.474 9.474 0 0 1-.1 4.502 9.432 9.432 0 0 1-4.424 5.76 9.509 9.509 0 0 1-3.021 1.114 9.423 9.423 0 0 1-1.717.157h-.056l.161-.253-3.065-2.894Zm-2.463-3.776c.02.048.04.096.068.14.044.097.097.189.153.285.116.204.244.397.381.577.044.06.092.12.14.181.048.068.1.128.161.192.168.2.357.385.553.557.048.044.096.088.153.124.032.032.068.057.1.081l.092.072c.032.024.064.048.096.068.012.012.025.02.041.028.072.052.148.104.224.152.173.116.349.217.534.305.072.04.152.076.228.112.293.132.59.241.895.325.032.008.06.012.088.02.028.008.056.012.088.02.061.016.121.028.177.04a1.905 1.905 0 0 0 .232.044c.093.016.185.032.277.04.117.012.233.024.349.032.125.012.245.012.373.012.097 0 .197 0 .293-.008l.209-.012c.044 0 .092-.008.132-.012.06-.004.12-.012.181-.02a4.61 4.61 0 0 0 .264-.04c.117-.016.233-.04.345-.072.101-.024.205-.048.301-.084.004.004.004.004.008.004v-.004h.004c.024-.008.048-.012.072-.024.085-.024.165-.052.245-.084.096-.033.189-.069.285-.113.224-.092.445-.2.662-.324a5.979 5.979 0 0 0 2.19-8.174 5.917 5.917 0 0 0-2.234-2.212 5.98 5.98 0 0 0-5.945.024c-.104.06-.209.124-.309.188-.148.096-.293.2-.425.313-.08.06-.157.124-.233.188l-.04.036a4.615 4.615 0 0 0-.457.461c-.04.04-.08.088-.117.132a4.86 4.86 0 0 0-.18.221 4.335 4.335 0 0 0-.293.417c-.056.08-.104.164-.152.248a4.581 4.581 0 0 0-.353.726 5.066 5.066 0 0 0-.153.417 3.158 3.158 0 0 0-.064.208c-.016.06-.036.124-.048.181-.004.008-.004.012-.004.012a7.692 7.692 0 0 0-.068.292c-.012.076-.028.153-.036.225-.012.064-.02.124-.028.188a3.354 3.354 0 0 0-.033.345c-.012.124-.012.252-.012.377 0 .096 0 .192.008.292.004.092.012.181.021.269.008.088.012.172.028.26.012.101.028.205.052.301.008.048.012.096.028.14.008.06.02.117.04.173.012.048.024.096.04.148.02.088.044.176.076.261a6.153 6.153 0 0 0 .297.729Z"/><path fill="#FEFCFD" d="M324.12 124.974a9.462 9.462 0 0 1-3.594-1.015l1.38-2.096 3.052 2.89-.16.253c-.229 0-.453-.012-.678-.032Z"/><path fill="#F1CF25" d="M324.121 124.974c.225.02.453.032.682.032l-.682 1.05v-1.082Z"/><path fill="#FDFDFD" d="M324.121 258.095c.377.04.754.072 1.135.096l-1.135 1.255v-1.351Z"/><path fill="#FDFDFD" d="M324.121 257.125a9.755 9.755 0 0 1 2.138-.04l-.999 1.106a26.029 26.029 0 0 1-1.135-.096v-.97h-.004Z"/><path fill="#FDFDFD" d="M324.651 260.592c-.065.008-.125.012-.189.028a.305.305 0 0 0-.084.012c-.084.013-.173.025-.257.045v-1.231l1.135-1.255.999-1.106.321.036v3.56c-.004-.004-.008-.004-.012-.004a2.322 2.322 0 0 0-.229-.041.313.313 0 0 0-.104-.016 3.769 3.769 0 0 0-.213-.032.901.901 0 0 0-.152-.012 1.472 1.472 0 0 0-.185-.012 4.521 4.521 0 0 0-.332-.012c-.129 0-.257.004-.382.012a2.728 2.728 0 0 0-.316.028Z"/><path fill="#22245C" d="M324.121 260.68Z"/><path fill="#202541" d="M324.12 253.273c-6.414-5.828-21.055-20.612-28.459-40.029-3.719-9.752-6.423-19.962-8.536-29.803l36.999-57.385v127.217h-.004Z"/><path fill="#00E9BF" d="M320.526 123.959a9.396 9.396 0 0 0 3.594 1.015v1.082l-37 57.385a339.824 339.824 0 0 1-1.781-8.847l34.156-49.075 1.031-1.56Z"/><path fill="#FEFEFE" d="M324.121 257.125a9.545 9.545 0 0 0-2.371.629c-20.823-3.864-34.18-28.969-37.345-39.367-3.378-11.083-7.958-26.993-10.534-52.699l-.024-.245c-2.254-22.279-7.754-39.499-9.141-43.58 6.43 1.038 11.015.966 11.015.966s.561 2.69 4.019 19.722c1.717 8.47 3.277 19.738 5.6 32.044l-4.674 6.718 4.826 4.658 1.629-2.53c2.114 9.841 4.817 20.051 8.536 29.803 7.404 19.417 22.05 34.197 28.46 40.029v3.852h.004Z"/><path fill="#FDFDFD" d="M321.75 257.758a9.549 9.549 0 0 1 2.37-.629v.97c-.802-.084-1.588-.2-2.37-.341Z"/><path fill="#FDFDFD" d="M321.749 257.758c.782.145 1.573.261 2.371.341v1.351l-1.677 1.848c0 .004-.004.004-.004.004-.116.064-.233.128-.341.204a4.776 4.776 0 0 0-.321.225c-.108.076-.208.16-.313.248-.1.085-.204.177-.296.269-.065.06-.125.12-.177.18a5.705 5.705 0 0 0-1.015 1.463 2.12 2.12 0 0 0-.124.273v.004c-.008.004-.008.008-.008.012l-.149.156c-1.187.073-2.39.097-3.602.065a9.492 9.492 0 0 1 1.031-2.614 9.522 9.522 0 0 1 4.625-4.029Z"/><path fill="#22245C" d="M330.362 263.262c.068.104.132.213.192.321.065.112.125.224.181.336.004.013.012.021.012.033.052.108.096.216.144.328.048.12.097.237.133.361.036.104.068.208.096.321.012.036.016.068.024.1.028.104.052.212.072.321v.004c.024.124.044.256.064.38a5.972 5.972 0 0 1-.148 2.293c-.036.124-.072.253-.112.377a6.97 6.97 0 0 1-.217.553 5.976 5.976 0 0 1-5.776 3.524l-.173-.012a3.433 3.433 0 0 1-.353-.04 3.208 3.208 0 0 1-.288-.049c-.013 0-.021 0-.029-.008-.12-.02-.236-.048-.353-.076l-.048-.012a3.148 3.148 0 0 1-.276-.084.703.703 0 0 1-.101-.032c.53-.922 1.051-1.848 1.557-2.782l1.54-.745-.538-1.103c.137-.256.273-.513.406-.773h.2v-.385a142.405 142.405 0 0 0 2.331-4.678c.004-.004.004-.004.008.004.096.068.188.14.276.216.045.036.089.068.129.109l.004.004c.04.04.084.072.124.116a.12.12 0 0 1 .032.032c.069.06.129.124.193.188.04.04.072.076.104.117.056.056.108.116.157.18a5.807 5.807 0 0 1 .421.565c.008-.012.008-.008.012-.004ZM322.844 261.098l-.203.095c.063-.032.131-.068.203-.095Z"/><path fill="#FDFDFD" d="M322.352 271.716c.116.068.233.128.349.184.008.004.012.008.016.008a5.42 5.42 0 0 0 .686.285 149.98 149.98 0 0 1-1.801 3.054 9.378 9.378 0 0 1-3.458-2.529l3.333-1.619c.069.06.133.116.205.168l.273.2c.028.016.06.041.092.061.1.068.205.128.305.188ZM322.443 261.298l1.677-1.848v1.231a2.446 2.446 0 0 0-.217.048c-.048.012-.096.024-.152.04a3.365 3.365 0 0 0-.281.084c-.008.004-.012.004-.016.008a5.766 5.766 0 0 0-.61.24c-.068.028-.136.065-.204.097-.056.028-.116.056-.169.088-.012.004-.016.008-.028.012Z"/><path fill="#1E205D" d="M322.366 120.961c-.076-.036-.152-.068-.227-.112.071.04.147.08.227.112Z"/><path fill="#22245C" d="M321.686 271.271a4.216 4.216 0 0 1-.205-.168l3.482-1.688c-.505.934-1.027 1.86-1.556 2.782-.112-.04-.225-.08-.333-.124a3.723 3.723 0 0 1-.369-.169 4.803 4.803 0 0 1-.349-.184c-.1-.06-.205-.12-.301-.184a1.84 1.84 0 0 1-.092-.06c-.096-.073-.185-.141-.277-.205ZM321.48 271.102a2.06 2.06 0 0 1-.224-.2c.076.068.148.136.224.2Z"/><path fill="#FDFDFD" d="M319.949 269.122c.012.033.032.065.048.097.04.092.088.18.14.264l.004.004c.048.092.1.181.161.265a3.504 3.504 0 0 0 .216.321 5.618 5.618 0 0 0 .598.697c.028.032.06.06.092.088a.254.254 0 0 0 .052.044c.073.072.149.141.225.201l-3.333 1.619a9.577 9.577 0 0 1-1.352-2.072l3.149-1.528Z"/><path fill="#202541" d="M320.598 274.75c.325.189.662.357 1.007.502a155.454 155.454 0 0 1-20.297 26.556c-10.514 10.702-29.62 18.759-29.62 18.759.506-1.286.839-2.14.839-2.14 2.527-6.197 6.51-17.866 10-28.408l35.624-17.297a9.451 9.451 0 0 0 2.447 2.028Z"/><path fill="#22245C" d="M320.373 269.868a.915.915 0 0 1-.072-.116 3.11 3.11 0 0 1-.16-.265l-.004-.004a4.232 4.232 0 0 1-.141-.264c-.016-.032-.036-.064-.048-.097l4.802-2.332h.842l.377.773a90.576 90.576 0 0 1-1.003 1.848l-3.481 1.688c-.077-.065-.153-.129-.225-.201a.507.507 0 0 1-.052-.044.956.956 0 0 1-.092-.088 6.006 6.006 0 0 1-.598-.698 2.856 2.856 0 0 1-.145-.2ZM322.439 261.302l-2.591 2.866c.036-.092.076-.18.124-.273a5.746 5.746 0 0 1 1.015-1.463c.052-.064.113-.124.177-.18.096-.096.196-.185.297-.269.1-.088.204-.172.313-.248a5.769 5.769 0 0 1 .665-.433Z"/><path fill="#22245C" d="M319.672 268.437a3.338 3.338 0 0 1-.084-.269c-.025-.088-.045-.172-.069-.26a.598.598 0 0 1-.024-.116c-.012-.056-.028-.117-.036-.177l-.036-.2c-.012-.06-.016-.12-.024-.18a5.867 5.867 0 0 1-.032-1.027c.004-.084.008-.164.016-.248 0-.02.004-.04.008-.064.004-.06.012-.117.02-.177a3.27 3.27 0 0 1 .056-.336 4.264 4.264 0 0 1 .213-.786v-.004c.012-.04.028-.072.04-.112a.231.231 0 0 1 .024-.068c.028-.081.06-.161.096-.237 0-.004 0-.008.008-.012v-.004l2.592-2.866s.004 0 .004-.004c.012-.004.016-.012.028-.012.052-.032.112-.06.168-.088.068-.036.133-.068.205-.096a2.97 2.97 0 0 1 .248-.109c.121-.048.237-.096.361-.132.008-.004.012-.004.016-.008.093-.032.185-.06.281-.084.052-.012.101-.028.153-.04.072-.02.148-.036.216-.048v6.109h.63l-4.801 2.332c-.008-.016-.012-.032-.02-.048-.045-.096-.089-.188-.125-.288a2.506 2.506 0 0 1-.132-.341Z"/><path fill="#FEFCFD" d="M319.808 112.291c-.052.08-.104.163-.152.247.044-.084.096-.167.152-.247Z"/><path fill="#1E205D" d="M319.443 118.087Z"/><path fill="#FDFDFD" d="M316.094 264.405c1.212.032 2.411.012 3.602-.064l.149-.157a2.736 2.736 0 0 0-.097.237.171.171 0 0 0-.024.068c-.012.04-.028.072-.04.112v.004c-.012.04-.028.072-.04.112a3.966 3.966 0 0 0-.096.325 3.564 3.564 0 0 0-.076.349c-.024.112-.04.224-.056.336a1.354 1.354 0 0 0-.021.177c-.004.02-.008.04-.008.064-.012.084-.012.164-.016.248-.02.345-.012.686.032 1.027.009.06.013.12.025.18.012.068.02.132.036.2.008.061.02.121.036.177.004.04.012.076.024.116.02.088.04.172.068.261.024.092.052.18.084.268.04.12.08.237.129.349.04.096.08.192.124.289.008.016.012.032.02.048l-3.149 1.527a9.567 9.567 0 0 1-.706-6.253Z"/><path fill="#1E205D" d="M318.97 116.636c.008.044.016.096.028.14a.58.58 0 0 1-.028-.14ZM318.89 116.075c.008.087.016.171.028.259a1.915 1.915 0 0 1-.028-.259Z"/><path fill="#1F2A48" d="M298.372 84.227a156.288 156.288 0 0 1 19.952 24.4 9.331 9.331 0 0 0-1.432 1.712L240.93 73.886a70.782 70.782 0 0 0-3.722-3.828l-19.563-28.713a154.519 154.519 0 0 1 31.107 9.448c16.667 7.05 31.818 16.82 45.107 29.105a151.556 151.556 0 0 1 4.513 4.33Z"/><path fill="#FDFDFD" d="M316.8 270.65a9.506 9.506 0 0 0 1.351 2.072l-35.624 17.297a975.91 975.91 0 0 1 1.071-3.247L316.8 270.65Z"/><path fill="#986F09" d="M307.241 80.291c3.826 4.57 14.613 17.69 19.438 25.919a9.49 9.49 0 0 0-8.359 2.413 156.284 156.284 0 0 0-24.465-28.729c4.93-.485 9.739-.116 13.386.397Z"/><path fill="#F9B309" d="m240.931 73.885 75.965 36.454a9.533 9.533 0 0 0-1.059 2.212l-71.035-34.088a86.312 86.312 0 0 0-3.871-4.578ZM315.424 116.636a9.34 9.34 0 0 0 .626 2.453h-38.914a95.77 95.77 0 0 1-2.599-2.453h40.887Z"/><path fill="#01FF94" d="m315.296 81.277-4.926-.601a167.653 167.653 0 0 0-41.762-32.733l2.66-2.209c13.482 7.572 25.857 16.952 36.936 28.023a173.836 173.836 0 0 1 7.092 7.52Z"/><path fill="#FF7801" d="M357.976 191.354c-.317-22.039-4.801-43.424-13.341-63.594a168.97 168.97 0 0 0-29.343-46.483l-4.926-.601c.052.052.096.1.149.152a167.446 167.446 0 0 1 20.77 27.719 9.267 9.267 0 0 1 1.785 2.225c0 .004.004.004.004.008a9.377 9.377 0 0 1 1.051 2.697c13.009 23.514 20.498 50.475 20.71 79.136.008.421.008.845.008 1.266 0 2.798-.068 5.58-.208 8.346-.036.814-.081 1.619-.133 2.429a7.36 7.36 0 0 0 3.069 1.435 171.141 171.141 0 0 0 .429-12.21c-.004-.837-.008-1.683-.024-2.525Z"/><path fill="#E5E2E5" d="m307.241 80.291 3.129.385.148.152a68.047 68.047 0 0 0-3.277-.537Z"/><path fill="#986F09" d="M307.241 80.291a62.11 62.11 0 0 1 3.273.541 167.39 167.39 0 0 1 20.77 27.719 9.568 9.568 0 0 0-4.605-2.341c-4.825-8.23-15.612-21.353-19.438-25.919Z"/><path fill="#202541" d="M298.372 304.822c-8.985 8.979-18.897 16.755-29.623 23.237.974-2.473 2.158-5.495 2.936-7.492 0 0 19.105-8.053 29.619-18.759a148.858 148.858 0 0 1-2.932 3.014Z"/><path fill="#F05601" d="M290.237 322.768c3.446-3.159 7.594-6.951 12.576-11.512-3.639 4.156-8.071 8.161-12.576 11.512Z"/><path fill="#FFE9B6" d="M289.632 268.036s-2.668 8.458-6.037 18.732l-6.619 3.211a222.195 222.195 0 0 0 5.5-22.841c4.099.75 7.156.898 7.156.898Z"/><path fill="#FEFEFE" d="m287.121 183.441-1.629 2.53-4.825-4.658 4.673-6.718a332.422 332.422 0 0 0 1.781 8.846Z"/><path fill="#FDFDFD" d="m276.976 289.983 6.618-3.211c-.349 1.066-.71 2.152-1.071 3.247l-6.546 3.174c.349-1.082.682-2.152.999-3.21Z"/><path fill="#F6515B" d="M270.125 263.266c.878.409 1.756.798 2.623 1.155 3.277 1.335 6.775 2.184 9.727 2.725a224.79 224.79 0 0 1-5.499 22.841L264.38 296.1c2.531-12.286 4.954-27.691 5.745-32.834Z"/><path fill="#FEFEFE" d="M277.14 119.089h-3.461v-2.453h.862a90.442 90.442 0 0 0 2.599 2.453Z"/><path fill="#FF8D02" d="M273.185 338.377c-.786.116-1.496.14-2.13.068a163.919 163.919 0 0 0 6.065-3.672c-3.578 3.279-3.907 3.576-3.935 3.604Z"/><path fill="#FDE5D0" d="M271.689 320.567c-.237.109-4.003-2.585-5.788-3.88.257-.417.501-.838.738-1.258 3.831-6.735 6.927-14.68 9.338-22.24l6.547-3.174c-3.49 10.546-7.473 22.211-10.001 28.408.004.004-.328.858-.834 2.144Z"/><path fill="#FF8D02" d="m271.272 45.734-2.659 2.209c-23.907-13.244-51.393-20.788-80.611-20.788V24c22.949 0 45.211 4.494 66.17 13.352a170.813 170.813 0 0 1 17.1 8.382ZM267.69 330.721c3.474 3.182 13.165-.97 22.547-7.953a16873.49 16873.49 0 0 1-13.121 12.005 163.919 163.919 0 0 1-6.065 3.672c-.898-.1-1.636-.397-2.214-.922-2.218-2.036-2.575-3.295-1.588-5.716.112-.265.264-.637.441-1.086Z"/><path fill="#A70D75" d="M270.124 263.262c-.79 5.147-3.213 20.552-5.744 32.834l-10.886 5.283c2.751-19.481 2.531-46.254 2.531-46.254s7.04 4.83 14.099 8.137Z"/><path fill="#FECA3C" d="M284.405 218.387c-3.378-11.083-7.959-26.993-10.534-52.699l-.024-.245c-2.254-22.279-7.754-39.499-9.142-43.58-4.316-.694-9.462-1.88-14.613-3.924 1.621 2.581 4.754 8.181 7.325 16.418 3.646 11.677 4.288 26.893 4.288 26.893s.068 1.664.209 4.341c.24 4.77.697 12.763 1.347 20.343 1.015 11.837 2.973 31.25 10.45 49.89 6.979 17.397 25.383 28.147 42.383 28.58a9.424 9.424 0 0 1 1.031-2.613 9.526 9.526 0 0 1 4.625-4.033c-20.823-3.864-34.18-28.973-37.345-39.371Z"/><path fill="#FEFEFE" d="M214.075 73.433c2.014 1.182 3.955 2.48 5.877 3.812a91.19 91.19 0 0 1 5.612 4.24 111.006 111.006 0 0 1 10.421 9.545c-2.804-3.824-6.069-7.3-9.523-10.579-3.474-3.25-7.22-6.245-11.231-8.866a67.838 67.838 0 0 0-6.234-3.62c-2.158-1.07-4.368-2.048-6.643-2.878-.569-.205-1.151-.389-1.724-.573-.293-.093-.574-.193-.871-.277l-.878-.236c-.59-.153-1.172-.337-1.769-.457l-1.785-.39c-.598-.127-1.204-.196-1.805-.296l-.907-.14c-.301-.04-.606-.064-.91-.096-.606-.052-1.212-.124-1.822-.165l-.581-.02V52.14c18.464.364 31.336 5.243 41.043 12.213l7.273 10.667 7.184 3.447c3.405 4.297 6.374 8.759 9.218 13.076 7.974 12.122 16.061 20.736 20.525 25.101h-.862v2.453h3.462c.553.501.874.774.91.81-6.185-.794-12.17-2.313-17.918-4.317 0 0-.004 0-.004-.004-6.101-3.183-12.182-7.528-19.94-13.597-7.758-6.065-12.864-11.168-24.842-19.2-10.59-7.104-23.253-7.925-26.045-8.026v-9.536l.413.012c.57.04 1.135.096 1.705.149.285.028.569.044.854.084l.846.124c.566.092 1.136.152 1.697.269 2.259.4 4.473 1.022 6.667 1.72a62.426 62.426 0 0 1 6.434 2.577c1.043.513 2.086 1.018 3.105 1.571 1.035.53 2.038 1.122 3.048 1.7Z"/><path fill="#FDFDFD" d="m253.494 301.379 10.887-5.283c-.213 1.042-.433 2.056-.646 3.042l-10.69 5.187c.16-.958.309-1.944.449-2.946Z"/><path fill="#FDFDFD" d="M263.734 299.138c.213-.986.434-2 .646-3.043l12.596-6.113c-.317 1.059-.65 2.129-.995 3.211l-12.247 5.945Z"/><path fill="url(#a)" d="m253.045 304.325 10.69-5.187a231.762 231.762 0 0 1-.742 3.283c-3.538 14.996-14.365 28.063-28.729 36.95-14.361 8.891-37.622 10.47-37.622 10.47 3.097-1.587 6.298-4.826 9.266-8.582 15.933 2.626 40.49-11.232 45.404-28.773.67-2.389 1.243-5.159 1.733-8.161Z"/><path fill="url(#b)" d="M283.117 254.728c-4.906-4.393-12.567-17.381-15.837-30.553-3.269-13.175-4.392-20.246-5.038-37.062-.381-10.033-.501-17.301-.533-21.53-.02-2.858-.004-4.329-.004-4.329s-.642-15.216-4.288-26.893c-2.571-8.237-5.704-13.837-7.325-16.418l-.622-.253c-12.82-5.259-17.108-7.752-17.24-7.828.225.296 14.573 19.529 18.003 41.207a114.41 114.41 0 0 1 1.291 12.863c.718 15.966-1.773 29.494-1.773 42.971 0 16.952 7.317 48.763 40.518 54.383.004 0-2.246-2.169-7.152-6.558Z"/><path fill="#202541" d="m218.331 321.176 34.718-16.851c-.49 3.002-1.067 5.772-1.737 8.161-4.914 17.541-29.471 31.399-45.404 28.773 6.226-7.881 11.412-18.054 12.423-20.083Z"/><path fill="#FFBB01" d="M215.347 82.78c11.982 8.033 17.084 13.136 24.842 19.201 7.754 6.069 13.839 10.414 19.94 13.597-17.048-5.941-31.99-16.13-43.655-24.12-15.596-10.686-27.172-12.91-27.172-12.91v-3.793c2.792.1 15.455.926 26.045 8.025Z"/><path fill="#202541" d="M315.833 112.551a9.498 9.498 0 0 0-.41 4.085H274.54c-4.464-4.361-12.547-12.976-20.525-25.101-2.844-4.317-5.813-8.775-9.218-13.076l71.036 34.092Z"/><path fill="url(#c)" d="M230.533 149.686c5.307 1.695 9.824 4.854 12.09 6.63.698 2.385 1.26 4.546 1.561 6.201l-13.334-1.231c.57-.645.963-1.154 1.119-1.378.43-.642.237-1.363-.441-1.363l.261-.902c1.163.417 1.713.32 1.849-.229.181-.721-.565-1.066-4.42-3.174-3.859-2.109-5.708-2.77-8.845-2.61-3.133.16-7.918 2.437-11.4 6.991-1.46 1.904-3.137 3.411-4.645 4.702-1.934 1.655-3.594 2.958-4.14 4.305-1.368-.477-3.883-.986-5.339-.846.004-1.411.004-2.802.004-4.165 0-9.821 2.868-12.863 6.137-13.665 3.27-.805 13.907-1.07 23.984-.376 1.901.132 3.774.537 5.559 1.11Z"/><path fill="#FEFEFE" d="m240.931 73.885-1.657-.793-2.07-3.035a69.77 69.77 0 0 1 3.727 3.828ZM237.208 70.057a63.175 63.175 0 0 0-6.86-5.712l-16.085-23.61c1.131.185 2.259.39 3.382.61l19.563 28.712Z"/><path fill="#FEFEFE" d="m244.802 78.46-7.184-3.448-7.273-10.667a62.699 62.699 0 0 1 6.859 5.712l2.07 3.035 1.657.793a87.38 87.38 0 0 1 3.871 4.574Z"/><path fill="#FFFDFE" d="M217.06 318.9c.517-.974 1.043-1.992 1.584-3.067 2.664-5.303 4.689-8.774 6.302-11.564 0-.004 0-.008.004-.012 1.592-2.762 2.768-4.85 3.746-7.384 1.966-5.103 5.303-17.032 6.19-27.434.682-8.053-1.472-16.254-4.962-23.606a68.815 68.815 0 0 0-3.358-6.197c-5.347-8.758-24.641-21.85-26.891-23.017-2.251-1.162-1.609-1.964-.963-2.449.642-.485 6.996-4.177 6.996-4.177s9.727 3.251 17.601 10.282c7.878 7.027 10.333 11.689 10.333 11.689s-7.918-20.403-6.554-20.844c1.364-.441 12.379 6.425 16.237 16.671 3.859 10.242 3.017 31.451 0 43.26-3.016 11.809-9.687 21.533-13.907 29.767-2.807 5.479-6.71 12.53-9.005 16.627l-3.185 1.547-.168-.092Z"/><path fill="#15134A" d="M215.227 71.585c4.015 2.625 7.757 5.616 11.231 8.866 3.454 3.28 6.719 6.755 9.523 10.579a110.496 110.496 0 0 0-10.421-9.544 91.11 91.11 0 0 0-5.612-4.241c-1.921-1.331-3.863-2.63-5.877-3.812-1.01-.578-2.013-1.17-3.048-1.696-1.019-.553-2.066-1.062-3.105-1.571a61.711 61.711 0 0 0-6.434-2.578c-2.194-.697-4.412-1.323-6.667-1.72-.561-.116-1.131-.18-1.697-.268l-.846-.124c-.285-.04-.57-.056-.854-.085-.57-.048-1.135-.108-1.705-.148l-.413-.012v-2.798l.581.02c.61.04 1.216.113 1.822.165.304.032.609.056.91.096l.907.14c.601.1 1.211.169 1.805.297l1.785.389c.597.124 1.179.308 1.769.457l.878.236c.293.084.578.184.871.277.573.184 1.155.372 1.724.573a65.029 65.029 0 0 1 6.643 2.878 68.738 68.738 0 0 1 6.23 3.624Z"/><path fill="#250EF0" d="M224.934 276.686s1.669 5.271 1.829 12.88c.137 6.449-.036 9.476-1.135 12.843-.197.597-.421 1.21-.682 1.848-.004.004-.004.008-.004.012-1.608 2.79-3.634 6.261-6.302 11.564a174.68 174.68 0 0 1-1.584 3.067 136.034 136.034 0 0 1-3.626 6.409c-3.635-.28-15.536-1.234-17.754-1.683-2.628-.537-3.43-2.518 0-5.247 3.429-2.734 26.101-24.368 27.537-31.17 1.396-6.622.072-13.301.004-13.645a49.033 49.033 0 0 1 1.717 3.122Z"/><path fill="#F9DB00" d="M225.628 302.409c4.24-6.698 6.711-43.484 5.531-52.211-.204-1.503-.67-2.946-1.323-4.325l.084-.04c3.49 7.356 5.644 15.553 4.962 23.606-.883 10.402-4.22 22.331-6.19 27.434-.978 2.538-2.158 4.626-3.746 7.384.261-.637.485-1.247.682-1.848Z"/><path fill="#162653" d="M231.16 250.199c1.179 8.726-1.296 45.512-5.532 52.21 1.099-3.367 1.272-6.394 1.135-12.843-.16-7.608-1.829-12.879-1.829-12.879v-.004c-.012-.181-.321-6.562-.738-14.166-.433-7.713-1.396-13.87-6.005-20.889a28.144 28.144 0 0 0-.798-1.162c-4.673-6.498-11.99-11.821-18.921-11.316-7.341.537-10.47 3.752-10.47 3.752v-5.303s4.601-3.375 10.735-3.375c6.137 0 13.052 4.926 17.124 7.74 3.373 2.329 10.838 7.315 13.983 13.913.646 1.375 1.111 2.818 1.316 4.322Z"/><path fill="#071C50" d="M221.415 163.439c-4.942-.301-8.58-4.798-8.58-4.963 0-.16 4.075-3.21 7.453-3.836 3.381-.625 8.083 1.427 10.173 2.433.513.245.95.433 1.323.57l-.261.901c-.152 0-.324.037-.521.117-1.083.441-4.641 5.078-9.587 4.778Z"/><path fill="#FDFDFD" d="m253.045 304.325-34.718 16.852c.12-.237.181-.361.181-.361s.746-1.319 1.901-3.379l33.085-16.062a109.94 109.94 0 0 1-.449 2.95Z"/><path fill="#FFFDFE" d="m218.295 321.196-1.071-2.208 3.185-1.547c-1.155 2.06-1.901 3.379-1.901 3.379s-.06.124-.181.36l-.032.016Z"/><path fill="#ECEDF6" d="m212.238 33.408 5.407 7.937c-1.127-.22-2.25-.425-3.381-.61h-.004l-4.048-5.944 2.026-1.383Z"/><path fill="url(#d)" d="M210.601 191.434c3.017 4.381 3.522 7.713 4.264 11.509.562 2.87.895 6.77 1.023 8.502a17.194 17.194 0 0 0-1.709-.954c-3.538-1.688-4.023-2.269-3.858-2.61.16-.345 2.631-2.048 1.889-5.203-.742-3.155-5.347-11.729-12.218-10.246 0 0-.618-21.986.08-24.499.028-.105.064-.209.108-.313.546-1.347 2.206-2.65 4.14-4.305l.461.256c.192-.124.734-.232 1.949-.256-1.363.994-3.229 2.689-3.285 2.93-.064.265-.601 10.526.441 14.418 1.051 3.901 3.707 6.394 6.715 10.771Z"/><path fill="#ECEDF6" d="M214.256 40.735a154.789 154.789 0 0 0-16.783-1.912c-.285-4.974-4.429-8.939-9.475-8.939v-2.73c29.218 0 56.703 7.545 80.611 20.789a167.813 167.813 0 0 1 41.761 32.733l-3.129-.385c-3.646-.513-8.456-.878-13.381-.393a155.444 155.444 0 0 0-45.107-29.105 154.271 154.271 0 0 0-31.108-9.448l-5.407-7.937-2.03 1.379 4.048 5.948Z"/><path fill="url(#e)" d="M244.288 163.118c-.032-.192-.064-.392-.104-.601l-13.333-1.231c-1.368 1.544-3.763 3.881-6.358 5.127-3.679 1.768-9.006-1.322-11.216-2.81-2.214-1.487-4.801-1.467-6.169-.541-.12.08-.241.169-.373.265 3.341-.068 5.13 1.992 8.612 4.698 3.486 2.705 6.751 3.696 11.284 1.767 4.529-1.928 14.392-5.704 14.392-5.704s-3.859 8.571-10.987 22.015-8.628 21.425-9.057 24.047c-.273 1.683.489 3.106 1.071 3.908.461-1.712 1.504-3.567 3.181-6.229.71-1.122 1.524-2.389 2.463-3.852 4.059-6.35 11.657-18.96 13.626-22.897 1.352-2.713 2.712-7.259 3.105-11.857v-.004c.18-2.084.164-4.173-.137-6.101Z"/><path fill="#F6F6F6" d="M241.023 164.08s-3.859 8.57-10.987 22.015c-7.128 13.444-8.628 21.425-9.057 24.047-.273 1.683.489 3.106 1.071 3.908a7.493 7.493 0 0 0-.265 2.092s-2.872-2.797-5.889-4.689c-.128-1.732-.461-5.632-1.022-8.502-.742-3.796-1.248-7.131-4.264-11.509-3.013-4.381-5.664-6.87-6.711-10.767-1.043-3.896-.506-14.157-.441-14.418.056-.237 1.921-1.932 3.285-2.93 3.341-.068 5.13 1.992 8.612 4.698 3.486 2.705 6.751 3.696 11.284 1.767 4.52-1.936 14.384-5.712 14.384-5.712Z"/><path fill="url(#f)" d="M212.835 158.476c0 .161 3.634 4.658 8.58 4.963 4.946.301 8.504-4.337 9.587-4.782a1.41 1.41 0 0 1 .522-.116c.678 0 .87.721.441 1.362-.152.229-.545.738-1.119 1.379-1.368 1.544-3.763 3.881-6.358 5.127-3.678 1.768-9.005-1.323-11.215-2.81-2.215-1.487-4.802-1.467-6.17-.541-.12.08-.241.168-.373.265-1.215.024-1.757.128-1.949.256l-.462-.256c1.509-1.291 3.185-2.794 4.645-4.702 3.486-4.55 8.268-6.827 11.4-6.991 3.137-.16 4.986.501 8.845 2.609 3.855 2.109 4.601 2.454 4.421 3.175-.137.545-.686.646-1.849.229a12.568 12.568 0 0 1-1.324-.57c-2.09-1.006-6.791-3.054-10.173-2.433-3.369.626-7.449 3.676-7.449 3.836Z"/><path fill="url(#g)" d="M263.262 185.93c1.015 11.838 2.972 31.251 10.449 49.89 6.98 17.397 25.384 28.148 42.383 28.58a9.537 9.537 0 0 0 .706 6.246l-33.205 16.118c3.37-10.278 6.037-18.732 6.037-18.732s-3.057-.148-7.156-.894c-2.956-.541-6.45-1.391-9.727-2.726a53.703 53.703 0 0 1-2.624-1.154v-.004c-7.06-3.307-14.095-8.133-14.095-8.133s.22 26.772-2.531 46.254l-33.085 16.062c2.294-4.101 6.197-11.148 9.005-16.628 4.22-8.233 10.894-17.954 13.907-29.767 3.016-11.804 3.859-33.017 0-43.259-3.859-10.246-14.874-17.112-16.238-16.671-1.364.441 6.555 20.844 6.555 20.844s-2.455-4.658-10.333-11.689-17.602-10.282-17.602-10.282c-2.33-.601-5.547.401-7.838 2.53-2.29 2.128-6.069 5.299-9.607 5.383-.084.004-.172 0-.261-.004v-3.431c3.097-.361 7.373-4.217 8.28-5.644.906-1.427.962-2.81 1.323-2.81.365 0 3.827 1.058 5.624.774 1.797-.281 3.602-1.876 4.216-2.714.618-.846.55-1.572-1.111-3.776-1.661-2.213-3.803-2.894-5.857-1.419-2.045 1.471-4.42 2.317-4.42 2.317s-1.243-.161-1.243-8.799c0-7.44.028-16.868.036-25.618 1.46-.14 3.971.369 5.339.846a2.22 2.22 0 0 0-.109.312c-.698 2.518-.08 24.5-.08 24.5 6.871-1.487 11.476 7.091 12.219 10.246.742 3.155-1.729 4.858-1.89 5.203-.16.341.321.922 3.859 2.609.562.269 1.139.594 1.709.954 3.02 1.892 5.888 4.69 5.888 4.69a7.526 7.526 0 0 1 .265-2.092c.461-1.712 1.504-3.568 3.181-6.229.71-1.123 1.524-2.389 2.463-3.852 4.059-6.35 11.657-18.961 13.626-22.897 1.352-2.71 2.712-7.259 3.105-11.857v-.004c.181-2.076.168-4.165-.132-6.097-.032-.192-.065-.393-.105-.601-.3-1.656-.862-3.816-1.56-6.201-2.05-7.003-5.275-15.922-6.615-19.465-1.849-4.903-5.868-22.255-20.902-34.786-12.175-10.153-23.318-11.304-27.109-11.376V65.183h.008l1.296.04v13.32s11.577 2.225 27.172 12.912c11.665 7.989 26.607 18.174 43.655 24.119 0 .004.004.004.004.004 5.748 2.004 11.733 3.523 17.919 4.317-.041-.036-.357-.309-.911-.81h38.913a9.47 9.47 0 0 0 4.473 4.87l-1.031 1.56-34.156 49.075c-2.323-12.306-3.883-23.573-5.6-32.043-3.457-17.032-4.019-19.722-4.019-19.722s-4.585.068-11.015-.966c-4.316-.694-9.463-1.88-14.613-3.924l-.622-.253c-12.82-5.259-17.108-7.752-17.24-7.828.224.296 14.573 19.529 18.002 41.207.71 4.477 1.107 8.75 1.292 12.863.718 15.966-1.773 29.494-1.773 42.971 0 16.952 7.317 48.763 40.518 54.383 0 0-2.25-2.169-7.156-6.558-4.906-4.393-12.568-17.381-15.837-30.553-3.269-13.176-4.392-20.246-5.038-37.062-.381-10.033-.61-21.477-.537-25.735"/><path fill="#15134A" d="m214.26 40.735 16.085 23.61c-9.707-6.966-22.583-11.849-41.043-12.213v10.297l-1.256-.04h-.048V48.861c5.235 0 9.495-4.258 9.495-9.488 0-.185-.008-.37-.016-.55 5.648.337 11.247.97 16.783 1.912Z"/><path fill="#FEFEFE" d="M182.009 39.373a5.987 5.987 0 0 0 5.989 5.984 5.987 5.987 0 0 0 5.945-6.706 5.985 5.985 0 0 0-11.881 0 4.185 4.185 0 0 0-.053.722Zm5.989-9.488c5.05 0 9.194 3.964 9.475 8.938.012.18.016.365.016.55 0 5.23-4.26 9.488-9.495 9.488-5.235 0-9.494-4.257-9.494-9.488 0-.185.008-.37.016-.55.288-4.974 4.432-8.939 9.482-8.939Z"/><path fill="url(#h)" d="M196.642 349.841s23.262-1.579 37.622-10.47c14.364-8.887 25.191-21.958 28.729-36.95.245-1.042.493-2.145.742-3.283l12.242-5.945c-2.41 7.56-5.507 15.505-9.338 22.239a44.86 44.86 0 0 1-.738 1.259c-6.326 10.478-16.643 20.078-30.044 26.352-.004.008-.004.008-.008.004a154.384 154.384 0 0 1-38.364 7.179c-.494.032-.991.06-1.488.084l.645-.469Z"/><path fill="url(#i)" d="M195.992 350.31c.497-.024.995-.052 1.488-.084a154.418 154.418 0 0 0 38.364-7.179c-11.312 5.299-24.826 8.237-39.989 7.339v-.004c.093-.044.137-.072.137-.072Z"/><path fill="#1E205D" d="M187.998 33.388a5.981 5.981 0 0 1 5.985 5.985 5.987 5.987 0 0 1-5.989 5.984 5.987 5.987 0 0 1-5.945-6.706 5.999 5.999 0 0 1 5.949-5.263Z"/><path fill="#15134A" d="m188.046 62.385 1.256.04v2.798l-1.296-.04h-.008v-2.802h.048v.004Z"/><path fill="#ECEDF6" d="M187.998 27.155v2.73c-5.051 0-9.194 3.964-9.475 8.938a154.76 154.76 0 0 0-16.783 1.912l4.051-5.944-2.029-1.38-5.408 7.938a154.519 154.519 0 0 0-31.107 9.448c-16.667 7.05-31.817 16.82-45.107 29.105-4.926-.485-9.735-.12-13.382.393a61.88 61.88 0 0 0-3.273.541c30.49-32.998 74.129-53.681 122.513-53.681Z"/><path fill="#2702FF" d="M187.998 24.004v3.155c-48.384 0-92.023 20.683-122.52 53.673a166.975 166.975 0 0 0-13.234 16.239l-3.028-1.347a170.688 170.688 0 0 1 18.576-21.959c15.612-15.6 33.795-27.85 54.036-36.405 20.955-8.866 43.217-13.356 66.17-13.356Z"/><path fill="#15134A" d="M161.736 40.735a154.764 154.764 0 0 1 16.783-1.912 8.31 8.31 0 0 0-.016.55c0 5.23 4.26 9.488 9.495 9.488v13.528h-.048l-1.256.04V52.132c-18.464.364-31.336 5.243-41.043 12.213l16.085-23.61Z"/><path fill="#15134A" d="M187.95 62.385h.048v2.802h-.008l-1.296.04V62.43l1.256-.044Z"/><path fill="url(#j)" d="M242.624 156.312c-2.05-7.003-5.275-15.922-6.615-19.465-1.849-4.903-5.868-22.255-20.903-34.786-12.174-10.153-23.317-11.304-27.108-11.376-3.791.072-14.93 1.223-27.108 11.376-15.034 12.531-19.054 29.883-20.903 34.786-1.34 3.543-4.565 12.462-6.614 19.465 2.266-1.772 6.779-4.935 12.09-6.63-.722-1.652-2.203-5.953-1.176-11.673 1.328-7.387 6.31-18.034 13.43-26.147 6.855-7.817 20.758-13.473 30.285-13.697 9.527.224 23.43 5.88 30.285 13.697 7.116 8.113 12.098 18.76 13.43 26.147 1.027 5.72-.453 10.025-1.175 11.673 5.303 1.699 9.815 4.858 12.082 6.63Z"/><path fill="#FDFDFD" d="M231.709 138.009c-1.328-7.387-6.31-18.034-13.43-26.147-6.855-7.817-20.758-13.472-30.285-13.697v46.599c-.498 5.227-1.521 8.758-2.379 16.478-1.179 10.667-.493 33.68-.493 41.151 0 6.041 2.078 10.507 2.872 11.998v.072c3.096-.361 7.372-4.217 8.279-5.644.907-1.427.963-2.81 1.324-2.81.365 0 3.827 1.058 5.624.774 1.793-.281 3.602-1.876 4.215-2.714.618-.846.55-1.571-1.111-3.776-1.66-2.213-3.802-2.894-5.856-1.419-2.046 1.471-4.421 2.317-4.421 2.317s-1.243-.16-1.243-8.799c0-7.439.028-16.867.036-25.618.004-1.411.004-2.802.004-4.165 0-9.82 2.868-12.863 6.137-13.665 3.269-.805 13.907-1.07 23.984-.376 1.905.128 3.782.537 5.567 1.106.722-1.64 2.202-5.941 1.176-11.665Z"/><path fill="#162653" d="M149.233 289.566c-.136 6.449.036 9.476 1.135 12.843-4.24-6.698-6.711-43.484-5.531-52.211.204-1.503.67-2.946 1.323-4.325 3.141-6.598 10.61-11.584 13.984-13.913 4.071-2.814 10.983-7.741 17.124-7.741 6.137 0 10.734 3.376 10.734 3.376v5.303s-3.129-3.215-10.469-3.752c-6.932-.505-14.248 4.818-18.922 11.316a29.5 29.5 0 0 0-.798 1.162c-4.609 7.019-5.575 13.176-6.005 20.888-.421 7.605-.73 13.986-.738 14.166v.004s-1.676 5.276-1.837 12.884Z"/><path fill="#FEFEFE" d="M198.467 229.15c-7.341.537-10.469 3.752-10.469 3.752s-3.129-3.215-10.47-3.752c-6.931-.505-14.248 4.818-18.921 11.316.878 1.062 3.277 3.199 8.335 3.359 6.651.208 12.997-3.018 13.189-3.115l.004-.004s3.302 2.722 7.863 3.091c4.556-.369 7.862-3.091 7.862-3.091l.004.004c.192.097 6.538 3.323 13.189 3.115 5.058-.16 7.457-2.297 8.335-3.359-4.673-6.498-11.99-11.821-18.921-11.316Z"/><path fill="url(#k)" d="M193.854 251.81c-.95-1.042-2.683-2.558-5.856-2.878-3.177.32-4.91 1.836-5.857 2.878-.786.858-1.44 1.431-2.358 2.393h16.438c-.923-.962-1.581-1.535-2.367-2.393Z"/><path fill="#4F00EC" d="M187.998 332.733c1.484.012 3.241.493 6.37 1.7 5.351 2.06 9.519 3.407 10.802 3.808-3.887 6.261-8.632 9.568-8.632 9.568s-2.379 2.305-6.422 2.686h-.02c-.654.064-1.356.072-2.098.012-.738.06-1.44.048-2.098-.012h-.02c-4.043-.381-6.422-2.686-6.422-2.686s-4.745-3.307-8.632-9.568a192.604 192.604 0 0 0 10.802-3.808c3.129-1.207 4.886-1.688 6.37-1.7Z"/><path fill="#FF8701" d="M186.694 74.76v3.791s-11.576 2.225-27.172 12.912c-11.665 7.989-26.607 18.174-43.655 24.119 6.101-3.183 12.182-7.528 19.94-13.597 7.758-6.065 12.864-11.168 24.842-19.2 10.586-7.104 23.253-7.93 26.045-8.026Z"/><path fill="#15134A" d="M150.432 81.486a111.02 111.02 0 0 0-10.421 9.544c2.804-3.824 6.069-7.3 9.523-10.579 3.473-3.25 7.22-6.245 11.231-8.866a67.838 67.838 0 0 1 6.234-3.62c2.158-1.07 4.368-2.048 6.642-2.878.57-.205 1.152-.389 1.725-.573.293-.093.574-.193.871-.277l.878-.236c.59-.153 1.171-.337 1.769-.457l1.785-.39c.598-.128 1.203-.196 1.805-.296l.907-.14c.3-.04.605-.064.91-.096.606-.053 1.212-.125 1.821-.165l.582-.02v2.798l-.413.012c-.57.04-1.135.096-1.705.148-.285.029-.57.045-.854.085l-.847.124c-.565.092-1.135.152-1.697.269-2.258.4-4.472 1.022-6.666 1.72a62.425 62.425 0 0 0-6.434 2.577c-1.043.513-2.086 1.018-3.105 1.57-1.039.526-2.042 1.12-3.049 1.697-2.013 1.182-3.955 2.48-5.876 3.812a88.147 88.147 0 0 0-5.616 4.237Z"/><path fill="#FFFDFE" d="M199.458 257.887a111.193 111.193 0 0 1-1.877-2.169 36.007 36.007 0 0 0-1.368-1.515h-16.438c-.397.413-.843.906-1.368 1.515-.762.894-1.36 1.6-1.877 2.169 0 0-1.296 10.225.028 16.01 1.323 5.784 5.062 10.081 7.717 16.146.417.958.778 1.94 1.091 2.93.125.397.245.794.353 1.186 1.368 4.855 1.685 9.44 2.271 10.314.585-.874.906-5.455 2.266-10.306.112-.4.233-.797.357-1.198.313-.986.674-1.972 1.091-2.93 2.656-6.065 6.39-10.362 7.718-16.146 1.332-5.781.036-16.006.036-16.006Z"/><path fill="url(#l)" d="M207.6 271.463c-1.5-6.481-5.411-11.247-6.402-11.945-.558-.393-1.083-.902-1.741-1.631 0 0 1.296 10.225-.028 16.01-1.324 5.784-5.062 10.081-7.718 16.146-.417.958-.778 1.94-1.091 2.93-.124.401-.244.798-.357 1.198-1.363 4.851-1.684 9.432-2.266 10.306-.586-.874-.907-5.463-2.27-10.314a33.51 33.51 0 0 0-.353-1.186 30.406 30.406 0 0 0-1.091-2.93c-2.656-6.065-6.39-10.362-7.718-16.146-1.324-5.785-.028-16.01-.028-16.01-.658.733-1.184 1.238-1.741 1.631-.987.698-4.902 5.464-6.402 11.945a14.48 14.48 0 0 0-.257 5.115v.004c.357 2.87 1.492 5.552 2.776 8.242.63 1.318 1.296 2.645 1.925 3.992 2.327 5.015 12.82 22.079 15.159 25.867 2.339-3.788 12.832-20.852 15.159-25.867.625-1.347 1.295-2.67 1.925-3.992 1.284-2.686 2.419-5.372 2.776-8.242v-.004a14.4 14.4 0 0 0-.257-5.119Z"/><path fill="url(#m)" d="M142.358 157.414c.144.569.738.654 2.017.169l.088.958c-.673.004-.858.721-.433 1.362.153.229.546.738 1.119 1.379l-13.333 1.231c.301-1.656.862-3.816 1.56-6.201 2.267-1.772 6.779-4.935 12.09-6.63 1.785-.569 3.659-.978 5.568-1.107 10.076-.697 20.714-.432 23.983.377 3.27.802 6.138 3.844 6.138 13.665 0 1.363 0 2.754.004 4.165-1.461-.14-3.972.369-5.339.846-.518-1.271-2.022-2.506-3.823-4.033-1.585-1.351-3.402-2.934-4.966-4.974-3.486-4.55-8.267-6.827-11.4-6.991-3.137-.16-4.986.501-8.845 2.609-3.867 2.109-4.609 2.454-4.428 3.175Z"/><path fill="#250EF0" d="M152.779 287.209c1.432 6.802 24.108 28.436 27.537 31.17 3.43 2.733 2.628 4.714 0 5.247-2.218.453-14.119 1.403-17.753 1.683a137.138 137.138 0 0 1-3.627-6.409 158.658 158.658 0 0 1-1.584-3.067c-2.664-5.303-4.689-8.774-6.302-11.564 0-.004 0-.008-.004-.012a29.081 29.081 0 0 1-.682-1.848c-1.099-3.367-1.271-6.394-1.135-12.843.16-7.608 1.829-12.88 1.829-12.88v-.004a50.18 50.18 0 0 1 1.713-3.122c-.064.349-1.388 7.027.008 13.649Z"/><path fill="url(#n)" d="M114.303 160.922c.12 4.269-.169 16.154-.554 26.187-.646 16.816-1.769 23.886-5.038 37.062-3.269 13.172-10.93 26.16-15.837 30.553-4.905 4.389-7.156 6.558-7.156 6.558 33.202-5.624 40.518-37.435 40.518-54.383 0-13.477-2.491-27.005-1.773-42.971.181-4.109.582-8.386 1.292-12.863 3.43-21.678 17.778-40.911 18.003-41.207-.129.072-4.417 2.569-17.241 7.828l-.622.253c-5.15 2.044-10.297 3.23-14.613 3.924-6.43 1.038-11.015.966-11.015.966s-.561 2.69-4.019 19.722c-1.68 8.273-3.205 19.208-5.44 31.178l-33.55-48.21-1.235-1.872a9.471 9.471 0 0 0 3.91-4.558h38.914c-.593.537-.914.81-.914.81 6.185-.794 12.174-2.313 17.922-4.317 0 0 .004 0 .004-.004 17.048-5.941 31.99-16.13 43.655-24.12 15.596-10.686 27.172-12.91 27.172-12.91V65.226l1.296-.04h.008v25.494c-3.791.072-14.93 1.223-27.108 11.376-15.035 12.531-19.054 29.883-20.903 34.786-1.34 3.543-4.565 12.462-6.615 19.465-.698 2.385-1.259 4.545-1.56 6.201-.04.208-.072.409-.104.601-.301 1.932-.317 4.021-.133 6.097v.004c.397 4.598 1.753 9.143 3.105 11.857 1.97 3.937 9.567 16.547 13.626 22.897.935 1.459 1.753 2.729 2.463 3.852 1.677 2.661 2.72 4.517 3.181 6.229.189.709.277 1.387.265 2.092 0 0 2.872-2.798 5.888-4.69.57-.36 1.148-.681 1.709-.954 3.538-1.687 4.024-2.268 3.859-2.609-.16-.345-2.631-2.048-1.889-5.203.742-3.155 5.347-11.729 12.218-10.246 0 0 .618-21.986-.08-24.5a2.406 2.406 0 0 0-.108-.312c1.367-.477 3.883-.986 5.339-.846.008 8.746.036 18.178.036 25.618 0 8.634-1.244 8.799-1.244 8.799s-2.374-.846-4.42-2.317c-2.05-1.475-4.192-.794-5.857 1.419-1.66 2.209-1.729 2.934-1.111 3.776.614.842 2.423 2.433 4.216 2.714 1.797.284 5.259-.774 5.624-.774.361 0 .421 1.383 1.324 2.81.906 1.427 5.182 5.283 8.279 5.644v3.431a2.862 2.862 0 0 1-.261.004c-3.538-.08-7.316-3.251-9.607-5.383-2.294-2.129-5.507-3.131-7.838-2.53 0 0-9.727 3.251-17.601 10.282-7.879 7.027-10.333 11.689-10.333 11.689s7.918-20.403 6.554-20.844c-1.364-.441-12.379 6.425-16.238 16.671-3.858 10.242-3.016 31.451 0 43.259 3.017 11.809 9.688 21.534 13.907 29.767 2.808 5.48 6.711 12.531 9.006 16.628l-33.085-16.062c-2.752-19.482-2.531-46.254-2.531-46.254s-7.036 4.826-14.096 8.133v.004a62.67 62.67 0 0 1-2.623 1.154c-3.278 1.335-6.775 2.185-9.728 2.726-4.1.746-7.156.894-7.156.894s2.668 8.458 6.037 18.732L59.192 270.65a9.533 9.533 0 0 0 .706-6.246c17-.432 35.403-11.183 42.383-28.58 7.473-18.639 9.43-38.052 10.449-49.89"/><path fill="#DDD3C0" d="M169.665 200.301c1.661-2.213 3.803-2.894 5.857-1.419 2.046 1.471 4.42 2.317 4.42 2.317s1.244-.16 1.244-8.799c0-7.439-.028-16.867-.036-25.618-.004-1.411-.004-2.802-.004-4.165 0-9.82-2.868-12.863-6.138-13.665-3.269-.805-13.907-1.07-23.983-.376-1.905.128-3.783.537-5.568 1.106-.722-1.652-2.202-5.953-1.175-11.673 1.328-7.387 6.31-18.034 13.43-26.147 6.855-7.817 20.758-13.472 30.285-13.697v46.599c-.498 5.227-1.52 8.758-2.379 16.478-1.179 10.667-.493 33.68-.493 41.151 0 6.041 2.078 10.507 2.872 11.998v.072c-3.097-.361-7.373-4.217-8.279-5.644-.907-1.427-.963-2.81-1.324-2.81-.365 0-3.827 1.058-5.624.774-1.797-.281-3.602-1.876-4.216-2.714-.618-.838-.553-1.563 1.111-3.768Z"/><path fill="url(#o)" d="M180.136 350.386c-15.163.898-28.677-2.04-39.989-7.339 12.407 4 25.243 6.405 38.364 7.179.494.032.991.06 1.488.084 0 0 .045.028.137.076Z"/><path fill="url(#p)" d="m112.257 299.138 10.69 5.187c.489 3.002 1.067 5.772 1.737 8.161 4.914 17.541 29.471 31.399 45.403 28.773 2.969 3.76 6.17 6.995 9.266 8.582 0 0-23.261-1.579-37.621-10.47-14.365-8.887-25.191-21.958-28.729-36.95a185.267 185.267 0 0 1-.746-3.283Z"/><path fill="url(#q)" d="M144.372 157.583c-1.276.485-1.873.404-2.018-.169-.18-.721.566-1.066 4.421-3.175 3.858-2.108 5.708-2.769 8.845-2.609 3.132.16 7.918 2.437 11.4 6.991 1.564 2.044 3.381 3.623 4.966 4.974l-.739.016c-.152-.144-.673-.264-1.989-.292-.129-.097-.253-.181-.373-.265-1.368-.926-3.959-.946-6.17.541-2.21 1.487-7.537 4.578-11.215 2.81-2.595-1.246-4.99-3.583-6.358-5.127a17.373 17.373 0 0 1-1.119-1.379c-.425-.641-.237-1.358.433-1.362.153 0 .329.036.53.116 1.087.445 4.641 5.083 9.587 4.782 4.941-.301 8.58-4.798 8.58-4.963 0-.16-4.076-3.21-7.453-3.836-3.382-.625-8.083 1.427-10.173 2.433a15.57 15.57 0 0 1-1.155.514Z"/><path fill="url(#r)" d="M171.989 163.591c1.797 1.527 3.301 2.762 3.823 4.033.044.1.08.208.108.312.698 2.518.08 24.5.08 24.5-6.871-1.487-11.476 7.091-12.218 10.246-.742 3.155 1.729 4.858 1.889 5.203.161.341-.321.922-3.859 2.609-.561.269-1.139.594-1.708.954.128-1.731.461-5.631 1.022-8.502.742-3.796 1.248-7.131 4.264-11.508 3.013-4.381 5.664-6.87 6.711-10.767 1.043-3.896.506-14.158.441-14.418-.056-.237-1.921-1.932-3.285-2.93 1.32.024 1.841.148 1.99.292l.742-.024Z"/><path fill="#C8C090" d="M172.542 166.249c.064.264.602 10.526-.441 14.418-1.043 3.897-3.698 6.386-6.711 10.767-3.016 4.381-3.522 7.712-4.264 11.508-.562 2.871-.894 6.771-1.023 8.502-3.02 1.892-5.888 4.69-5.888 4.69a7.526 7.526 0 0 0-.265-2.092c.582-.798 1.348-2.221 1.071-3.908-.433-2.626-1.934-10.607-9.058-24.047-7.128-13.445-10.986-22.015-10.986-22.015s9.863 3.776 14.392 5.704c4.529 1.932 7.798.938 11.284-1.767 3.482-2.706 5.271-4.766 8.612-4.698 1.356 1.002 3.221 2.697 3.277 2.938Z"/><path fill="#252842" d="M195.679 318.379c3.43-2.734 26.101-24.368 27.538-31.17 1.395-6.622.072-13.3.004-13.645v-.004a48.437 48.437 0 0 0-3.811-5.52c-.67-.834-1.332-1.671-2.002-2.517a453.16 453.16 0 0 0-1.524-1.912c-3.574-4.454-7.529-9.107-13.398-14.37-4.898-4.394-6.277-7.108-6.622-8.527l-.004-.004s-3.302 2.722-7.862 3.091c-4.557-.369-7.863-3.091-7.863-3.091l-.004.004c-.345 1.419-1.724 4.129-6.622 8.527-5.869 5.263-9.824 9.916-13.398 14.37a453.16 453.16 0 0 0-1.524 1.912c-.67.842-1.332 1.683-2.002 2.517a48.29 48.29 0 0 0-3.81 5.52v.004c-.069.349-1.392 7.023.004 13.645 1.432 6.802 24.107 28.436 27.537 31.17 3.43 2.734 2.627 4.714 0 5.247-2.218.453-14.12 1.403-17.754 1.683 3.012 5.019 5.684 8.755 8.215 12.856.012.024.032.048.044.072h.004a192.222 192.222 0 0 0 10.803-3.808c3.132-1.207 4.885-1.684 6.37-1.7 1.484.012 3.241.493 6.369 1.7 5.351 2.06 9.519 3.407 10.803 3.808h.004c.016-.024.032-.048.044-.072 2.531-4.101 5.203-7.837 8.215-12.856-3.634-.28-15.536-1.234-17.754-1.683-2.627-.537-3.43-2.513 0-5.247Zm-7.681-3.696c-2.339-3.788-12.833-20.852-15.159-25.867-.626-1.347-1.296-2.673-1.925-3.992-1.284-2.686-2.419-5.372-2.776-8.242v-.004a14.356 14.356 0 0 1 .256-5.114c1.501-6.482 5.412-11.248 6.402-11.946.558-.393 1.083-.902 1.741-1.631.514-.569 1.115-1.275 1.878-2.169.525-.613.97-1.102 1.367-1.515.919-.958 1.573-1.535 2.359-2.393.951-1.042 2.684-2.557 5.857-2.878 3.176.321 4.909 1.836 5.856 2.878.786.858 1.44 1.431 2.359 2.393.397.413.842.906 1.367 1.515.763.894 1.36 1.6 1.878 2.169.658.733 1.183 1.238 1.741 1.631.986.698 4.901 5.464 6.402 11.946.413 1.791.461 3.483.256 5.114v.004c-.357 2.87-1.492 5.552-2.775 8.242-.63 1.323-1.296 2.645-1.926 3.992-2.326 5.015-12.82 22.079-15.158 25.867Z"/><path fill="#24254B" d="M170.083 341.259c-15.932 2.626-40.489-11.232-45.403-28.773-.67-2.389-1.244-5.159-1.737-8.161l34.717 16.851c1.011 2.029 6.202 12.202 12.423 20.083Z"/><path fill="url(#s)" d="M140.147 343.047c-.004.004-.004.004-.008-.004-13.401-6.274-23.722-15.874-30.044-26.352a35.253 35.253 0 0 1-.738-1.259c-3.831-6.734-6.928-14.679-9.338-22.239l12.242 5.945c.249 1.138.497 2.241.742 3.283 3.538 14.996 14.364 28.063 28.729 36.95 14.36 8.891 37.622 10.47 37.622 10.47l.649.465a90.777 90.777 0 0 1-1.488-.084 154.194 154.194 0 0 1-38.368-7.175Z"/><path fill="#ECEDF6" d="m165.787 34.79-4.051 5.945h-.004c-1.132.185-2.259.39-3.382.61l5.407-7.937 2.03 1.383Z"/><path fill="#FFFFFB" d="m161.732 40.735-16.086 23.61a62.781 62.781 0 0 0-6.859 5.712l19.563-28.712c1.127-.22 2.25-.425 3.382-.61Z"/><path fill="#071C50" d="M155.703 154.64c3.377.626 7.453 3.676 7.453 3.837 0 .16-3.634 4.657-8.58 4.962-4.946.301-8.504-4.337-9.587-4.782a1.447 1.447 0 0 0-.53-.116l-.088-.958c.337-.129.722-.297 1.159-.509 2.094-1.007 6.795-3.055 10.173-2.434Z"/><path fill="#F7B41E" d="M224.934 276.682c-.012-.18-.321-6.562-.738-14.166-.433-7.712-1.396-13.869-6.005-20.888a29.5 29.5 0 0 0-.798-1.162c-.879 1.062-3.278 3.199-8.336 3.359-6.65.208-12.996-3.019-13.189-3.115.345 1.419 1.725 4.129 6.623 8.526 5.868 5.263 9.823 9.917 13.397 14.371.514.641 1.023 1.278 1.525 1.912.67.846 1.331 1.683 2.001 2.517a48.308 48.308 0 0 1 3.811 5.52v.004a55.499 55.499 0 0 1 1.709 3.122Z"/><path fill="url(#t)" d="M166.943 243.825c-5.059-.16-7.457-2.297-8.336-3.359-.277.381-.541.769-.798 1.162-4.609 7.019-5.576 13.176-6.005 20.888-.421 7.604-.73 13.986-.738 14.166a49.896 49.896 0 0 1 1.713-3.122v-.004a48.42 48.42 0 0 1 3.81-5.52c.67-.834 1.332-1.675 2.002-2.517.501-.634 1.011-1.271 1.524-1.912 3.574-4.454 7.53-9.108 13.398-14.371 4.898-4.393 6.278-7.107 6.623-8.526-.197.1-6.543 3.327-13.193 3.115Z"/><path fill="#FDFDFD" d="m158.771 318.988-1.071 2.208-.036-.016c-.12-.236-.18-.36-.18-.36s-.746-1.319-1.901-3.379l3.188 1.547Z"/><path fill="#272742" d="m158.35 41.345-19.563 28.713a69.302 69.302 0 0 0-3.722 3.828l-75.966 36.453a9.07 9.07 0 0 0-1.432-1.712 156.295 156.295 0 0 1 24.465-28.729 155.435 155.435 0 0 1 45.107-29.105 154.633 154.633 0 0 1 31.111-9.448Z"/><path fill="#FDFDFD" d="M155.583 317.441a1154.43 1154.43 0 0 0 1.901 3.379s.061.124.181.36l-34.718-16.851c-.156-.958-.309-1.944-.449-2.946l33.085 16.058ZM170.292 209.993s6.354 3.692 6.996 4.177c.645.485 1.287 1.287-.963 2.449-2.25 1.167-21.545 14.259-26.892 23.017a68.063 68.063 0 0 0-3.357 6.197c-3.49 7.356-5.644 15.553-4.962 23.606.882 10.402 4.22 22.331 6.189 27.434.979 2.538 2.158 4.626 3.747 7.384.004.004.004.008.004.012 1.608 2.79 3.634 6.261 6.302 11.564a171.222 171.222 0 0 0 1.584 3.067l-.164.088-3.185-1.547c-2.295-4.101-6.198-11.148-9.006-16.627-4.22-8.234-10.894-17.954-13.907-29.767-3.016-11.805-3.859-33.018 0-43.26 3.859-10.246 14.874-17.112 16.238-16.671 1.364.441-6.555 20.844-6.555 20.844s2.455-4.658 10.333-11.689c7.871-7.027 17.598-10.278 17.598-10.278Z"/><path fill="#05B5CC" d="M160.649 168.017c3.482-2.706 5.271-4.766 8.612-4.698-.128-.096-.253-.181-.373-.265-1.368-.926-3.959-.946-6.169.541-2.21 1.487-7.537 4.578-11.216 2.81-2.595-1.246-4.99-3.583-6.358-5.127l-13.333 1.231c-.04.208-.072.409-.104.601-.301 1.932-.317 4.021-.133 6.097v.004c.397 4.598 1.753 9.144 3.105 11.857 1.969 3.937 9.567 16.547 13.626 22.897.935 1.459 1.753 2.73 2.463 3.852 1.677 2.662 2.72 4.517 3.181 6.229.582-.798 1.348-2.221 1.071-3.908-.433-2.626-1.933-10.607-9.057-24.047-7.128-13.445-10.987-22.015-10.987-22.015s9.863 3.776 14.392 5.704c4.525 1.933 7.794.942 11.28-1.763Z"/><path fill="url(#u)" d="M226.562 239.636c-5.347-8.759-24.641-21.85-26.892-23.017-2.25-1.162-1.608-1.964-.962-2.449.641-.485 6.995-4.177 6.995-4.177-2.33-.601-5.547.401-7.838 2.53-2.29 2.128-6.069 5.299-9.607 5.383a2.84 2.84 0 0 1-.26-.004c-.089.004-.177.008-.261.004-3.538-.08-7.317-3.251-9.607-5.383-2.295-2.129-5.508-3.131-7.838-2.53 0 0 6.354 3.692 6.995 4.177.646.485 1.288 1.287-.962 2.449-2.251 1.167-21.545 14.258-26.892 23.017a68.063 68.063 0 0 0-3.357 6.197l.084.04c3.141-6.598 10.61-11.584 13.983-13.913 4.072-2.814 10.983-7.741 17.124-7.741 6.138 0 10.735 3.376 10.735 3.376s4.6-3.376 10.734-3.376c6.137 0 13.052 4.927 17.124 7.741 3.373 2.329 10.838 7.315 13.983 13.913l.084-.04a70.144 70.144 0 0 0-3.365-6.197Z"/><path fill="url(#v)" d="M144.837 250.198c-1.179 8.727 1.296 45.513 5.531 52.211.197.597.422 1.211.682 1.848-1.592-2.762-2.767-4.85-3.746-7.384-1.966-5.103-5.303-17.032-6.19-27.434-.681-8.053 1.473-16.254 4.962-23.606l.085.04c-.654 1.379-1.123 2.822-1.324 4.325Z"/><path fill="#FEFEFE" d="m145.647 64.345-7.273 10.667-7.184 3.447a86.896 86.896 0 0 1 3.871-4.574l1.656-.793 2.07-3.035a62.805 62.805 0 0 1 6.86-5.712Z"/><path fill="#8E485F" d="M126.521 117.686c12.82-5.259 17.108-7.752 17.24-7.828-.224.296-14.572 19.529-18.002 41.207-.71 4.477-1.107 8.75-1.292 12.863-3.048.962-6.675 1.443-10.18 1.651.02-2.858.004-4.329.004-4.329s.641-15.216 4.288-26.893c2.571-8.237 5.704-13.837 7.324-16.418.205-.085.409-.169.618-.253Z"/><path fill="#FEFEFE" d="m138.787 70.057-2.07 3.035-1.656.793a70.866 70.866 0 0 1 3.726-3.828Z"/><path fill="#272742" d="m60.159 112.551 71.035-34.088c-3.405 4.297-6.374 8.759-9.218 13.076-7.974 12.122-16.061 20.736-20.525 25.101H60.568a9.453 9.453 0 0 0-.41-4.089Z"/><path fill="#DD5A79" d="M111.287 121.863c4.316-.694 9.462-1.88 14.613-3.924-1.621 2.581-4.754 8.181-7.325 16.418-3.646 11.677-4.288 26.893-4.288 26.893s-.068 1.664-.208 4.341c-4.874.281-9.479.04-11.934-.148 2.258-22.279 7.758-39.499 9.142-43.58Z"/><path fill="#2B66AB" d="M124.468 163.928c-.718 15.966 1.773 29.494 1.773 42.971 0 16.952-7.317 48.763-40.518 54.383 0 0 2.25-2.169 7.156-6.558 4.906-4.393 12.567-17.381 15.836-30.553 3.269-13.175 4.393-20.246 5.038-37.062.382-10.033.502-17.3.534-21.529 3.502-.209 7.128-.686 10.181-1.652Z"/><path fill="#FDFDFD" d="m122.947 304.325-10.69-5.187c-.212-.986-.433-2-.646-3.042l10.887 5.283c.14 1.002.293 1.988.449 2.946Z"/><path fill="#2B21EB" d="m122.497 301.379-10.886-5.283c-2.531-12.282-4.954-27.687-5.744-32.83v-.004c7.06-3.307 14.095-8.133 14.095-8.133s-.216 26.773 2.535 46.25Z"/><path fill="#FDFDFD" d="m112.257 299.138-12.243-5.945a132.248 132.248 0 0 1-.995-3.211l12.592 6.113c.217 1.043.433 2.057.646 3.043Z"/><path fill="#FEFCFD" d="M100.271 122.829s4.585.068 11.015-.966c-1.384 4.081-6.887 21.301-9.142 43.58l-.024.245c-2.575 25.706-7.156 41.616-10.533 52.699-3.165 10.398-16.523 35.503-37.345 39.367a9.553 9.553 0 0 0-2.37-.629v-3.852c6.413-5.828 21.054-20.612 28.46-40.029 3.83-10.049 6.582-20.583 8.724-30.693l2.206 3.42 4.825-4.658-5.275-7.58c2.235-11.97 3.76-22.905 5.44-31.178 3.458-17.036 4.019-19.726 4.019-19.726Z"/><path fill="#FFE3B4" d="M109.356 315.433c.237.42.486.841.739 1.258-1.786 1.295-5.552 3.989-5.789 3.88-.505-1.286-.838-2.14-.838-2.14-2.527-6.197-6.51-17.866-10-28.408l6.546 3.175c2.411 7.556 5.508 15.5 9.342 22.235Z"/><path fill="url(#w)" d="M102.148 165.443c2.455.185 7.06.429 11.934.148-.241 4.771-.698 12.763-1.348 20.344-1.015 11.837-2.972 31.25-10.449 49.889-6.98 17.397-25.384 28.148-42.383 28.58a9.473 9.473 0 0 0-1.031-2.613 9.528 9.528 0 0 0-4.625-4.033c20.822-3.864 34.18-28.969 37.345-39.367 3.377-11.083 7.958-26.993 10.533-52.699.004-.084.016-.169.024-.249Z"/><path fill="#3858D6" d="M105.871 263.266c.79 5.143 3.213 20.548 5.744 32.83l-12.592-6.113a222.228 222.228 0 0 1-5.5-22.841c2.957-.541 6.451-1.391 9.728-2.725a60.886 60.886 0 0 0 2.62-1.151Z"/><path fill="#15134A" d="M93.469 290.019c3.49 10.546 7.472 22.211 10 28.408 0 0 .332.854.838 2.14 0 0-19.106-8.053-29.62-18.759a112.904 112.904 0 0 1-1.01-1.075l-.092-.096a155.165 155.165 0 0 1-19.194-25.385 9.382 9.382 0 0 0 3.458-2.53l35.62 17.297Z"/><path fill="#FEFEFE" d="M102.313 116.636v2.453h-3.461a94.617 94.617 0 0 0 2.599-2.453h.862Z"/><path fill="#FF7F16" d="M60.568 116.636h40.883a89.369 89.369 0 0 1-2.6 2.453H59.938a9.06 9.06 0 0 0 .63-2.453Z"/><path fill="#FDFDFD" d="m100.014 293.189-6.546-3.174a975.91 975.91 0 0 0-1.072-3.247l6.62 3.211c.32 1.062.653 2.132.998 3.21Z"/><path fill="#FEFEFE" d="M115.863 115.582c-5.748 2.004-11.737 3.523-17.923 4.317 0 0 .321-.273.915-.81h3.462v-2.453h-.863c4.465-4.361 12.548-12.975 20.526-25.101 2.844-4.317 5.812-8.775 9.218-13.076l7.184-3.447 7.273-10.667c9.707-6.966 22.583-11.849 41.043-12.213v10.297l-.582.02c-.609.04-1.215.113-1.821.165-.305.032-.61.056-.91.096l-.907.14c-.602.1-1.211.169-1.805.297l-1.785.389c-.598.124-1.179.308-1.769.457l-.879.236c-.292.084-.577.184-.87.277-.574.184-1.155.373-1.725.573a65.13 65.13 0 0 0-6.642 2.878c-2.151 1.09-4.22 2.313-6.234 3.62-4.015 2.625-7.758 5.615-11.232 8.866-3.453 3.28-6.718 6.755-9.522 10.579a110.51 110.51 0 0 1 10.421-9.544 90.887 90.887 0 0 1 5.612-4.241c1.921-1.331 3.863-2.63 5.876-3.812 1.011-.578 2.014-1.17 3.049-1.696 1.019-.553 2.066-1.062 3.105-1.571a61.514 61.514 0 0 1 6.434-2.578c2.194-.697 4.412-1.323 6.666-1.72.562-.116 1.132-.18 1.697-.268l.847-.124c.284-.04.569-.056.854-.084.57-.049 1.135-.109 1.705-.149l.413-.012v9.528c-2.792.097-15.46.922-26.045 8.025-11.982 8.033-17.084 13.136-24.842 19.201-7.758 6.073-13.843 10.414-19.944 13.605Z"/><path fill="#FEFCFD" d="m90.817 173.729 5.274 7.58-4.825 4.658-2.206-3.42a356.035 356.035 0 0 0 1.757-8.818Z"/><path fill="#FFE3B4" d="M93.52 267.142a224.775 224.775 0 0 0 5.5 22.841l-6.619-3.211a1974.377 1974.377 0 0 1-6.037-18.732s3.057-.152 7.156-.898Z"/><path fill="#FDFDFD" d="m93.468 290.019-35.624-17.297a9.59 9.59 0 0 0 1.352-2.072l33.205 16.118 1.067 3.251Z"/><path fill="#E03528" d="M68.75 80.291c3.647-.513 8.456-.878 13.382-.393a156.29 156.29 0 0 0-24.465 28.729 9.47 9.47 0 0 0-8.36-2.413c1.4-2.381 3.298-5.175 5.38-8.053C59.8 91.098 66.035 83.538 68.75 80.29Z"/><path fill="#069EBF" d="M74.687 301.812c10.514 10.702 29.619 18.759 29.619 18.759.778 1.993 1.962 5.019 2.937 7.492-10.727-6.482-20.638-14.254-29.624-23.237-.99-.994-1.965-2-2.932-3.014Z"/><path fill="#FF5B32" d="M65.477 80.828c.931-.18 2.038-.369 3.274-.541-2.716 3.247-8.95 10.807-14.064 17.87l-2.447-1.09a167.605 167.605 0 0 1 13.237-16.239Z"/><path fill="#FEFCFD" d="M55.894 107.3a9.451 9.451 0 0 1 1.777 1.323 9.355 9.355 0 0 1 2.49 3.924 9.504 9.504 0 0 1 .41 4.085 9.354 9.354 0 0 1-1.2 3.628 9.44 9.44 0 0 1-3.337 3.383l-1.18-1.784-3.052 2.89.14.213a8.954 8.954 0 0 1-.802.04 9.396 9.396 0 0 1-2.715-.397 9.22 9.22 0 0 1-2.022-.874 9.432 9.432 0 0 1-4.424-5.76 9.373 9.373 0 0 1-.105-4.494s0-.004.004-.008a9.47 9.47 0 0 1 1.047-2.689c0-.004.004-.004.004-.008a9.274 9.274 0 0 1 1.785-2.225 9.57 9.57 0 0 1 4.605-2.341 9.675 9.675 0 0 1 1.841-.181 9.533 9.533 0 0 1 4.734 1.275Zm-7.742 13.401c.217.124.437.236.662.324.096.04.188.08.285.112.104.041.208.077.32.109h.005c.004.004.004.004.008 0 .096.036.2.06.3.084.113.032.23.056.346.072.088.016.176.032.264.04.06.012.12.016.18.02.04.008.089.012.133.012.068.008.14.012.209.012a5.808 5.808 0 0 0 1.015-.036c.092-.012.184-.024.276-.04.008 0 .012 0 .024-.004.069-.012.137-.024.209-.04.056-.012.116-.02.176-.04.029-.004.057-.012.089-.02.028-.008.056-.012.088-.02.305-.084.602-.193.895-.325.076-.036.152-.068.228-.112.18-.088.361-.189.534-.305.076-.044.152-.096.224-.152.012-.008.028-.016.04-.028.069-.044.129-.092.189-.144a.698.698 0 0 0 .1-.081c.052-.04.1-.08.153-.124.196-.172.385-.357.553-.557.06-.064.113-.124.16-.193a5.757 5.757 0 0 0 .522-.757c.052-.096.104-.189.153-.285.028-.044.048-.092.068-.14.088-.18.164-.361.228-.545.02-.06.044-.124.065-.185.032-.084.056-.172.076-.26.012-.048.028-.096.04-.148.016-.057.032-.113.04-.173.012-.044.02-.092.028-.14a2.49 2.49 0 0 0 .052-.301c.012-.088.02-.172.028-.26.012-.092.016-.181.02-.269.008-.096.008-.192.008-.292 0-.125-.004-.253-.012-.377a2.485 2.485 0 0 0-.032-.345c-.008-.064-.012-.124-.028-.188a2.302 2.302 0 0 0-.036-.225 2.546 2.546 0 0 0-.068-.292c0-.004 0-.008-.004-.012-.012-.061-.032-.125-.048-.181a2.068 2.068 0 0 0-.065-.208 3.927 3.927 0 0 0-.152-.417c-.04-.1-.08-.201-.124-.293a4.592 4.592 0 0 0-.229-.433 2.295 2.295 0 0 0-.152-.248 3.636 3.636 0 0 0-.293-.417 4.811 4.811 0 0 0-.18-.221c-.04-.044-.077-.092-.117-.132a8.734 8.734 0 0 0-.18-.196 4.07 4.07 0 0 0-.277-.265c-.012-.012-.024-.02-.04-.036a3.638 3.638 0 0 0-.233-.188 4.633 4.633 0 0 0-.425-.313c-.097-.068-.205-.128-.31-.188a5.981 5.981 0 0 0-6.277.176 5.984 5.984 0 0 0 .289 10.19Z"/><path fill="#FDFDFD" d="M54.246 257.758a9.528 9.528 0 0 1 4.625 4.033 9.473 9.473 0 0 1 1.03 2.613 9.53 9.53 0 0 1-2.057 8.318 9.382 9.382 0 0 1-3.458 2.529 9.43 9.43 0 0 1-3.738.77 9.505 9.505 0 0 1-4.565-1.171c0-.004-.004-.003-.004-.003a9.695 9.695 0 0 1-2.499-1.977 9.225 9.225 0 0 1-1.16-1.595 8.964 8.964 0 0 1-.597-1.235 9.342 9.342 0 0 1-.67-3.315v-.004a9.493 9.493 0 0 1 .321-2.649 9.417 9.417 0 0 1 4.116-5.576 9.52 9.52 0 0 1 4.152-1.415 9.808 9.808 0 0 1 2.138.04 9.81 9.81 0 0 1 2.366.637Zm-7.156 3.965c-.004 0-.004 0-.008.008a3.449 3.449 0 0 0-.277.216 3.557 3.557 0 0 0-.293.261 2.859 2.859 0 0 0-.297.304 2.383 2.383 0 0 0-.156.181 5.739 5.739 0 0 0-.421.565l-.008.008a4.908 4.908 0 0 0-.193.321 3.36 3.36 0 0 0-.18.336c-.004.012-.012.02-.012.032-.052.109-.1.217-.145.329-.048.12-.096.237-.132.361a3.62 3.62 0 0 0-.096.321c-.012.036-.016.068-.024.1a2.068 2.068 0 0 0-.073.32v.004a4.038 4.038 0 0 0-.064.381 5.998 5.998 0 0 0 .149 2.293c.036.124.072.253.112.377a6.247 6.247 0 0 0 .493 1.094 5.976 5.976 0 0 0 5.5 2.983l.172-.012c.12-.008.237-.02.353-.041.097-.012.193-.028.29-.048.011 0 .02 0 .027-.008.12-.02.237-.048.353-.076l.048-.012c.097-.024.185-.052.277-.084a8.177 8.177 0 0 0 .433-.156c.12-.048.237-.101.353-.161a4.782 4.782 0 0 0 .365-.192c.1-.06.205-.124.301-.184.032-.021.064-.041.092-.061.097-.068.185-.132.273-.2.004-.004.012-.008.012-.012.064-.048.125-.1.189-.152v-.016a2.19 2.19 0 0 0 .224-.201 2.534 2.534 0 0 0 .233-.224 5.999 5.999 0 0 0 .886-1.191l.005-.004c.052-.088.096-.176.14-.264.016-.032.036-.065.048-.097.008-.016.012-.032.02-.048.044-.096.088-.188.125-.288.048-.117.092-.233.128-.349.032-.088.06-.18.084-.269l.068-.26a.598.598 0 0 0 .024-.116c.012-.061.028-.121.036-.177l.036-.2c.013-.06.017-.12.025-.181.04-.34.052-.681.032-1.026-.004-.084-.008-.168-.016-.248 0-.02-.004-.04-.008-.064-.004-.061-.012-.117-.02-.177a3.336 3.336 0 0 0-.057-.337 4.397 4.397 0 0 0-.172-.673 2.55 2.55 0 0 0-.08-.228.234.234 0 0 0-.024-.069 2.888 2.888 0 0 0-.097-.236c0-.004 0-.008-.008-.012v-.004a2.856 2.856 0 0 0-.124-.273 5.74 5.74 0 0 0-1.015-1.463 1.869 1.869 0 0 0-.084-.092c-.028-.032-.06-.06-.092-.092a4.595 4.595 0 0 0-.297-.269 3.7 3.7 0 0 0-.313-.248 5.79 5.79 0 0 0-.662-.429s-.004 0-.004-.004c-.012-.004-.016-.012-.028-.012-.052-.032-.112-.06-.169-.088a1.913 1.913 0 0 0-.204-.097 3.323 3.323 0 0 0-.249-.108c-.12-.048-.236-.096-.36-.132-.009-.004-.013-.004-.017-.008a3.262 3.262 0 0 0-.28-.084c-.053-.012-.1-.028-.153-.04a2.365 2.365 0 0 0-.217-.048 1.768 1.768 0 0 0-.256-.045c-.028-.012-.056-.012-.085-.012a4.056 4.056 0 0 0-.505-.056c-.124-.012-.253-.012-.381-.012-.112 0-.225.004-.333.012a43.95 43.95 0 0 0-.185.012l-.152.012c-.068.008-.144.016-.213.032a.315.315 0 0 0-.104.016c-.076.008-.152.02-.228.041-.005 0-.008 0-.013.004a1.568 1.568 0 0 0-.228.052c-.068.012-.14.032-.209.056a.17.17 0 0 0-.06.016c-.064.012-.124.036-.18.056a4.177 4.177 0 0 0-.442.168c-.096.04-.188.08-.28.129-.125.056-.245.124-.37.192a4.31 4.31 0 0 0-.288.18 3.796 3.796 0 0 0-.261.181c.004.004.004.008-.004.016Z"/><path fill="#FFF3BF" d="m59.1 110.339 75.966-36.454a86.896 86.896 0 0 0-3.871 4.574l-71.036 34.088a9.637 9.637 0 0 0-1.059-2.208Z"/><path fill="#1E205D" d="M55.895 111.874c.104.132.204.272.293.417a5.725 5.725 0 0 1 .381.681c.044.096.088.193.124.293.056.136.108.276.153.417a3.1 3.1 0 0 1 .064.208c.016.06.036.124.048.181.004.008.004.012.004.012.024.096.048.196.068.292.012.076.028.153.036.225.012.064.02.124.028.188.016.116.028.229.032.345.012.124.012.252.012.377 0 .096 0 .192-.008.292a5.793 5.793 0 0 1-.02.269 5.733 5.733 0 0 1-.028.26 2.456 2.456 0 0 1-.052.301c-.008.044-.016.096-.028.14a.837.837 0 0 1-.04.173c-.012.048-.024.096-.04.148-.02.088-.044.176-.076.261-.016.064-.04.124-.065.184-.064.184-.14.369-.228.545-.02.048-.044.096-.069.14a5.318 5.318 0 0 1-.533.862c-.04.06-.088.12-.14.181-.048.068-.1.128-.16.192a5.19 5.19 0 0 1-.554.557c-.049.044-.097.088-.153.124-.032.032-.068.057-.1.081-.06.052-.124.096-.189.144a.144.144 0 0 1-.04.028 4.373 4.373 0 0 1-.224.152 4.157 4.157 0 0 1-.534.305c-.072.04-.152.076-.228.112-.293.132-.59.241-.895.325-.032.008-.06.012-.088.02a.393.393 0 0 1-.089.02c-.06.016-.12.028-.176.04-.068.016-.14.032-.209.04-.012.004-.016.004-.024.004a3.292 3.292 0 0 1-.276.04c-.117.012-.233.024-.35.032-.124.012-.244.012-.372.012-.097 0-.197 0-.293-.008l-.209-.012c-.044 0-.092-.008-.132-.012a2.519 2.519 0 0 1-.79-.132c-.1-.024-.201-.052-.301-.084-.004.004-.004.004-.008 0h-.004a5.041 5.041 0 0 1-.321-.108 3.051 3.051 0 0 1-.285-.113 5.61 5.61 0 0 1-.662-.324 5.98 5.98 0 0 1-2.19-8.174 5.981 5.981 0 0 1 1.905-2.016 5.98 5.98 0 0 1 6.278-.176c.104.06.209.124.309.188.148.096.293.2.425.313.08.06.156.124.233.188l.04.036c.096.084.184.173.276.265.065.064.125.128.181.196.04.04.076.088.116.132.065.073.12.149.177.221Z"/><path fill="#1E205D" d="M56.998 116.776c.012-.044.02-.096.028-.14a1.777 1.777 0 0 1-.028.14ZM56.48 118.227ZM56.188 112.291Z"/><path fill="#FEFCFD" d="m54.852 121.863 1.18 1.784a9.512 9.512 0 0 1-4.092 1.323l-.14-.213 3.052-2.894Z"/><path fill="#22245C" d="M54.51 271.102a2.597 2.597 0 0 1 0 0ZM54.51 271.103c-.064.055-.124.107-.188.155l.188-.155Z"/><path fill="#1E205D" d="M53.628 120.961c.076-.036.152-.072.228-.112-.076.044-.152.08-.228.112Z"/><path fill="#22245C" d="M53.151 261.098c.068.027.136.063.204.095l-.204-.095Z"/><path fill="#06C6FC" d="m49.211 95.72 3.029 1.347a163.897 163.897 0 0 0-7.533 11.48 9.28 9.28 0 0 0-1.785 2.225c0 .004-.004.004-.004.008a9.35 9.35 0 0 0-1.047 2.689c-.004.004-.004.008-.004.008-13.089 23.658-20.59 50.808-20.714 79.669a7.405 7.405 0 0 0-3.141-1.66c.3-22.086 4.79-43.512 13.345-63.731A169.379 169.379 0 0 1 49.211 95.72Z"/><path fill="#FF5359" d="M51.94 124.966a9.459 9.459 0 0 0 4.091-1.323l1.235 1.872 33.55 48.21a379.57 379.57 0 0 1-1.752 8.822L51.94 124.966Z"/><path fill="#15134A" d="M80.335 213.244c-7.405 19.417-22.05 34.197-28.46 40.029V124.974c.02 0 .04-.004.064-.008l37.124 57.581c-2.142 10.114-4.894 20.648-8.728 30.697Z"/><path fill="#FEFCFD" d="M51.875 253.273v3.852a9.758 9.758 0 0 0-2.138-.04l-.32-.349v-1.315a73.355 73.355 0 0 0 2.458-2.148Z"/><path fill="#22245C" d="M51.618 260.633c.084.011.172.023.255.043-.083-.016-.167-.032-.255-.043Z"/><path fill="#F89120" d="M51.137 125.006c.244 0 .493-.012.738-.032v128.299a80.722 80.722 0 0 1-2.455 2.152V124.849a9.518 9.518 0 0 0 1.717.157Z"/><path fill="#22245C" d="M50.656 272.518a5.972 5.972 0 0 1-5.684-4.085 5.994 5.994 0 0 1-.26-2.67 6.2 6.2 0 0 1 .064-.38v-.004c.02-.105.044-.213.072-.321.008-.032.012-.068.024-.1.028-.109.064-.213.096-.321a5.489 5.489 0 0 1 .277-.689c.004-.012.012-.021.012-.033.056-.112.116-.224.18-.336a5.24 5.24 0 0 1 .193-.321l.008-.008c.068-.108.148-.216.225-.321.064-.084.124-.164.196-.244.048-.064.1-.124.157-.181.032-.04.068-.076.104-.116.064-.068.124-.128.193-.188.012-.012.02-.024.032-.032.084-.08.168-.153.26-.229.093-.08.18-.152.277-.216.004-.008.004-.008.008-.004v-.004c.008-.008.012-.012.016-.012.084-.068.173-.125.26-.181.093-.064.19-.124.29-.18.124-.068.244-.136.369-.192.092-.049.184-.093.28-.129a4.54 4.54 0 0 1 .622-.224.114.114 0 0 1 .06-.016c.069-.02.137-.04.21-.056.071-.024.151-.04.228-.052.004-.004.008-.004.012-.004.076-.012.152-.028.228-.041a.315.315 0 0 1 .105-.016c.068-.012.144-.024.212-.032a.906.906 0 0 1 .153-.012c.064-.008.124-.012.184-.012.108-.008.22-.012.333-.012.129 0 .257.004.381.012.105.004.209.012.317.028.064.008.124.012.189.028.028 0 .056.004.084.012.088.013.172.029.257.045a4.497 4.497 0 0 1 .37.088c.095.024.187.052.28.084.008.004.011.004.015.008a5.543 5.543 0 0 1 .61.24l.205.097c.056.028.116.056.168.088.012.004.016.012.028.012a3.643 3.643 0 0 1 .345.208c.109.068.217.145.321.225.108.076.209.16.313.248.1.085.205.177.297.269.032.032.064.06.092.092.028.028.056.06.084.092a5.74 5.74 0 0 1 1.14 1.736v.004c.008.004.008.008.008.012.036.08.068.156.096.236a.18.18 0 0 1 .024.069c.032.072.056.152.08.228.036.104.068.213.096.325.029.112.057.228.077.349.024.112.04.224.056.336.012.06.016.117.02.177a.31.31 0 0 1 .008.064c.012.08.012.164.016.248.02.345.012.686-.032 1.026-.008.061-.012.121-.024.181-.012.068-.02.132-.036.2-.008.056-.02.117-.036.177a.591.591 0 0 1-.024.116c-.02.088-.04.172-.069.26a2.903 2.903 0 0 1-.084.269c-.04.12-.08.237-.128.349-.04.096-.08.192-.125.288-.008.016-.012.032-.02.048-.012.033-.032.065-.048.097-.04.092-.088.18-.14.264l-.004.004c-.048.092-.1.181-.16.265a3.23 3.23 0 0 1-.217.32 5.527 5.527 0 0 1-.51.606 2.534 2.534 0 0 1-.232.224 5.365 5.365 0 0 1-.225.201l-.188.156c-.005.004-.012.008-.012.012-.089.068-.181.132-.273.2-.028.016-.06.041-.093.061-.096.064-.2.124-.3.184a4.89 4.89 0 0 1-.35.184c-.007.004-.011.008-.015.008-.117.06-.237.113-.353.161a4.716 4.716 0 0 1-.434.156c-.092.032-.18.06-.276.084a.095.095 0 0 1-.048.012 5.574 5.574 0 0 1-.354.076c-.008.008-.016.008-.028.008a3.63 3.63 0 0 1-.288.048c-.12.017-.237.033-.353.041a1.251 1.251 0 0 1-.173.012c-.116.012-.22.016-.32.016Z"/><path fill="#1E205D" d="M49.727 121.329Z"/><path fill="#22245C" d="M49.655 260.637a3.61 3.61 0 0 0-.227.039c.076-.02.151-.031.227-.039Z"/><path fill="#FEFCFD" d="m49.42 256.736.32.348a77.29 77.29 0 0 1-.32.036v-.384Z"/><path fill="#272742" d="M48.422 124.605a153.357 153.357 0 0 0-4.256 9.207c-8.135 19.225-12.259 39.648-12.259 60.713 0 21.064 4.128 41.491 12.259 60.712.461 1.098.938 2.185 1.428 3.267a9.52 9.52 0 0 1 3.83-1.379V124.849a9.168 9.168 0 0 1-1.002-.244Z"/><path fill="#22245C" d="M49.19 260.733c-.067.016-.135.036-.207.056a1.33 1.33 0 0 1 .208-.056ZM48.926 260.805ZM46.511 262.208c-.068.06-.127.123-.191.187a2.1 2.1 0 0 1 .191-.187Z"/><path fill="#069EBF" d="M46.087 274.851a9.483 9.483 0 0 0 8.303.4 155.356 155.356 0 0 0 20.25 26.504c.015.017.035.037.047.053.963 1.014 1.942 2.02 2.937 3.014 8.985 8.979 18.897 16.755 29.623 23.237h.004c.401 1.014.766 1.94 1.055 2.662-5.143 4.71-23.9-6.646-35.123-19.465-2.6-2.967-5.247-6.214-7.778-9.444-.004-.004-.008-.012-.012-.012-8.444-10.775-15.632-21.446-15.632-21.446l-3.674-5.503Z"/><path fill="#069EBF" d="M65.393 301.795c-9.282-10.542-16.402-20.371-21.809-28.925a9.695 9.695 0 0 0 2.499 1.977s.004-.001.004.003l3.674 5.5s7.188 10.671 15.632 21.445Z"/><path fill="#FF5B32" d="M44.707 108.551a162.905 162.905 0 0 1 7.533-11.48l2.447 1.09c-2.082 2.878-3.98 5.668-5.379 8.053a9.5 9.5 0 0 0-4.601 2.337Z"/><path fill="#ECE8E7" d="M21.157 193.15c.124-28.861 7.625-56.011 20.714-79.669a9.471 9.471 0 0 0 .104 4.494 9.431 9.431 0 0 0 4.425 5.76c.642.373 1.32.661 2.021.874a153.296 153.296 0 0 0-4.256 9.207c-8.134 19.225-12.258 39.648-12.258 60.713 0 21.064 4.128 41.491 12.258 60.712.462 1.098.939 2.185 1.428 3.267a9.377 9.377 0 0 0-4.115 5.576 9.206 9.206 0 0 0-.321 2.649c-3.534-6.149-8.865-15.881-13.277-25.93-.004-.008-.004-.008-.004-.012-.004-.008-.004-.012-.004-.012a165.853 165.853 0 0 1-6.41-36.686"/><path fill="#03B9FF" d="M28.217 241.909c1.07 3.319 4.805 13.685 13.606 28.131a9.391 9.391 0 0 0 1.757 2.83c5.411 8.554 12.531 18.383 21.81 28.925.003.005.007.013.011.013 2.531 3.234 5.179 6.477 7.778 9.443 11.224 12.82 29.98 24.176 35.123 19.466.18.449.329.821.437 1.086.987 2.425.63 3.684-1.588 5.716-.574.525-1.316.822-2.215.922-36.502-21.02-64.34-55.457-76.72-96.532Z"/><path fill="#0165FE" d="M20.996 221.001c1.324 6.065 3.887 12.991 6.872 19.774 0 0 0 .004.004.012 0 .004 0 .004.004.012.004.016.012.052.028.1.012.044.032.108.056.184.008.024.012.052.024.08.028.101.06.205.092.301.012.044.028.096.044.148.012.044.032.097.044.145.012.048.033.1.049.152 12.382 41.075 40.22 75.512 76.727 96.536-2.567.289-6.394-1.026-11.09-3.074 0-.004-.005-.004-.005-.004-.004 0-.008 0-.012-.004a170.52 170.52 0 0 1-26.045-21.357c-15.612-15.601-27.87-33.768-36.43-53.995a168.195 168.195 0 0 1-11.192-38.878l.83-.132Z"/><path fill="#ECE8E7" d="M41.823 270.045c-8.8-14.447-12.535-24.817-13.606-28.132-.016-.052-.036-.104-.048-.152-.012-.048-.032-.096-.044-.145-.017-.052-.032-.1-.045-.148a6.361 6.361 0 0 1-.092-.301c-.012-.028-.016-.056-.024-.08-.024-.076-.04-.14-.056-.184-.012-.048-.024-.084-.028-.1 4.412 10.049 9.743 19.782 13.277 25.931v.004a9.249 9.249 0 0 0 .666 3.307Z"/><path fill="#0165FE" d="M27.868 240.774c-2.984-6.782-5.552-13.709-6.871-19.773l-.83.128a168.218 168.218 0 0 1-1.75-15.204 7.515 7.515 0 0 0 3.045-1.836 165.558 165.558 0 0 0 6.406 36.685Z"/><path fill="#06C6FC" d="M21.177 196.693a164.172 164.172 0 0 1-.02-3.547 7.405 7.405 0 0 0-3.141-1.66 183.411 183.411 0 0 0-.004 4.498c.04 3.327.177 6.642.405 9.941h.004a7.515 7.515 0 0 0 3.045-1.836 161.132 161.132 0 0 1-.29-7.396Z"/><defs><linearGradient id="a" x1="196.643" x2="263.736" y1="324.49" y2="324.49" gradientUnits="userSpaceOnUse"><stop stop-color="#9D21A4"/><stop offset=".52" stop-color="#F51C90"/><stop offset="1" stop-color="#9801CA"/></linearGradient><linearGradient id="b" x1="218.854" x2="298.894" y1="117.58" y2="256.311" gradientUnits="userSpaceOnUse"><stop stop-color="#FF7300"/><stop offset=".681" stop-color="#FFB933"/><stop offset="1" stop-color="#FFDB4C"/></linearGradient><linearGradient id="d" x1="163.874" x2="211.886" y1="233.423" y2="185.378" gradientUnits="userSpaceOnUse"><stop stop-color="#F1D003"/><stop offset=".561" stop-color="#EB583F"/><stop offset=".923" stop-color="#E4D494"/></linearGradient><linearGradient id="e" x1="240.474" x2="207.46" y1="195.634" y2="162.597" gradientUnits="userSpaceOnUse"><stop stop-color="#FBB03B"/><stop offset=".168" stop-color="#F3BC58"/><stop offset=".441" stop-color="#E8CD82"/><stop offset=".581" stop-color="#E4D492"/><stop offset="1" stop-color="#E4D494"/></linearGradient><linearGradient id="f" x1="218.993" x2="218.993" y1="166.625" y2="148.075" gradientUnits="userSpaceOnUse"><stop stop-color="#C7B299"/><stop offset=".723" stop-color="#F89B23"/></linearGradient><linearGradient id="h" x1="195.994" x2="275.979" y1="321.75" y2="321.75" gradientUnits="userSpaceOnUse"><stop stop-color="#9800CE"/><stop offset=".479" stop-color="#FF288B"/><stop offset="1" stop-color="#F84690"/></linearGradient><linearGradient id="i" x1="195.857" x2="235.846" y1="346.796" y2="346.796" gradientUnits="userSpaceOnUse"><stop stop-color="#F84690"/><stop offset=".52" stop-color="#FF288B"/><stop offset="1" stop-color="#9800CE"/></linearGradient><linearGradient id="j" x1="187.997" x2="187.997" y1="90.685" y2="156.313" gradientUnits="userSpaceOnUse"><stop stop-color="#FF7300"/><stop offset=".958" stop-color="#F7AA46"/><stop offset="1" stop-color="#F7AD49"/></linearGradient><linearGradient id="k" x1="167.318" x2="211.454" y1="251.566" y2="251.566" gradientUnits="userSpaceOnUse"><stop stop-color="#FF7300"/><stop offset=".681" stop-color="#FFB933"/><stop offset="1" stop-color="#FFDB4C"/></linearGradient><linearGradient id="l" x1="167.318" x2="211.453" y1="286.284" y2="286.284" gradientUnits="userSpaceOnUse"><stop stop-color="#FF7300"/><stop offset=".681" stop-color="#FFB933"/><stop offset="1" stop-color="#FFDB4C"/></linearGradient><linearGradient id="o" x1="140.148" x2="180.137" y1="346.796" y2="346.796" gradientUnits="userSpaceOnUse"><stop stop-color="#F84690"/><stop offset=".52" stop-color="#FF288B"/><stop offset="1" stop-color="#9800CE"/></linearGradient><linearGradient id="p" x1="112.258" x2="179.351" y1="324.49" y2="324.49" gradientUnits="userSpaceOnUse"><stop stop-color="#9D21A4"/><stop offset=".52" stop-color="#F51C90"/><stop offset="1" stop-color="#9801CA"/></linearGradient><linearGradient id="q" x1="132.378" x2="182.044" y1="146.851" y2="174.033" gradientUnits="userSpaceOnUse"><stop stop-color="#F1D003"/><stop offset=".561" stop-color="#EB583F"/><stop offset=".923" stop-color="#848D73"/></linearGradient><linearGradient id="r" x1="211.109" x2="163.408" y1="72.23" y2="203.378" gradientUnits="userSpaceOnUse"><stop stop-color="#F1D003"/><stop offset=".609" stop-color="#E65B42"/><stop offset="1" stop-color="#818E93"/></linearGradient><linearGradient id="s" x1="100.015" x2="180" y1="321.75" y2="321.75" gradientUnits="userSpaceOnUse"><stop stop-color="#F84690"/><stop offset=".52" stop-color="#FF288B"/><stop offset="1" stop-color="#9800CE"/></linearGradient><linearGradient id="t" x1="151.062" x2="180.133" y1="258.575" y2="258.575" gradientUnits="userSpaceOnUse"><stop stop-color="#FF8F01"/><stop offset=".561" stop-color="#FF9800"/><stop offset="1" stop-color="#FFAF00"/></linearGradient><linearGradient id="u" x1="146.072" x2="229.921" y1="227.848" y2="227.848" gradientUnits="userSpaceOnUse"><stop stop-color="#FF7300"/><stop offset=".681" stop-color="#FFB933"/><stop offset="1" stop-color="#FFDB4C"/></linearGradient><linearGradient id="v" x1="137.896" x2="206.878" y1="275.047" y2="275.047" gradientUnits="userSpaceOnUse"><stop stop-color="#FF8F01"/><stop offset=".561" stop-color="#FF9800"/><stop offset="1" stop-color="#FFAF00"/></linearGradient><linearGradient id="w" x1="67.972" x2="106.131" y1="260.312" y2="194.172" gradientUnits="userSpaceOnUse"><stop stop-color="#009BB6"/><stop offset=".561" stop-color="#2D6DB2"/><stop offset=".923" stop-color="#585CA4"/></linearGradient><radialGradient id="c" cx="0" cy="0" r="1" gradientTransform="matrix(50.3535 0 0 50.3184 203.736 153.114)" gradientUnits="userSpaceOnUse"><stop stop-color="#202646"/><stop offset=".349" stop-color="#0025C6"/><stop offset=".833" stop-color="#182948"/></radialGradient><radialGradient id="g" cx="0" cy="0" r="1" gradientTransform="matrix(50.3535 0 0 50.3184 203.736 153.114)" gradientUnits="userSpaceOnUse"><stop stop-color="#202646"/><stop offset=".349" stop-color="#0025C6"/><stop offset=".833" stop-color="#182948"/></radialGradient><radialGradient id="m" cx="0" cy="0" r="1" gradientTransform="matrix(39.3113 0 0 39.2839 173.669 156.97)" gradientUnits="userSpaceOnUse"><stop stop-color="#202646"/><stop offset=".349" stop-color="#0025C6"/><stop offset=".833" stop-color="#182948"/></radialGradient><radialGradient id="n" cx="0" cy="0" r="1" gradientTransform="matrix(39.3113 0 0 39.2839 173.669 156.97)" gradientUnits="userSpaceOnUse"><stop stop-color="#202646"/><stop offset=".349" stop-color="#0025C6"/><stop offset=".833" stop-color="#182948"/></radialGradient></defs></svg>